<?xml version="1.0"?>
<svg version="1.1" id="topsvg"
xmlns="http://www.w3.org/2000/svg" xmlns:xlink="http://www.w3.org/1999/xlink"
xmlns:cml="http://www.xml-cml.org/schema" x="0" y="0" width="200px" height="200px" viewBox="0 0 100 100">
<title>KHP-123/mol_files/pp_1 - Open Babel Depiction</title>
<rect x="0" y="0" width="100" height="100" fill="white"/>
<g transform="translate(0,0)">
<svg width="100" height="100" x="0" y="0" viewBox="0 0 287.846 200"
font-family="sans-serif" stroke="rgb(0,0,0)" stroke-width="2"  stroke-linecap="round">
<line x1="189.8" y1="113.5" x2="201.9" y2="106.5" stroke="rgb(0,0,0)"  stroke-width="2.0"/>
<line x1="167.3" y1="113.5" x2="155.2" y2="106.5" stroke="rgb(0,0,0)"  stroke-width="2.0"/>
<line x1="172.1" y1="131.3" x2="165.1" y2="143.4" stroke="rgb(0,0,0)"  stroke-width="2.0"/>
<line x1="185.1" y1="131.3" x2="192.1" y2="143.4" stroke="rgb(0,0,0)"  stroke-width="2.0"/>
<line x1="87.4" y1="103.9" x2="99.5" y2="110.9" stroke="rgb(0,0,0)"  stroke-width="2.0"/>
<line x1="84.4" y1="109.1" x2="96.5" y2="116.1" stroke="rgb(0,0,0)"  stroke-width="2.0"/>
<line x1="74.6" y1="87.0" x2="74.6" y2="73.0" stroke="rgb(0,0,0)"  stroke-width="2.0"/>
<line x1="63.4" y1="106.5" x2="51.3" y2="113.5" stroke="rgb(0,0,0)"  stroke-width="2.0"/>
<line x1="120.5" y1="113.5" x2="132.7" y2="106.5" stroke="rgb(0,0,0)"  stroke-width="2.0"/>
<line x1="109.3" y1="133.0" x2="109.3" y2="147.0" stroke="rgb(0,0,0)"  stroke-width="2.0"/>
<line x1="213.2" y1="87.0" x2="213.2" y2="73.0" stroke="rgb(0,0,0)"  stroke-width="2.0"/>
<line x1="224.5" y1="53.5" x2="236.6" y2="46.5" stroke="rgb(0,0,0)"  stroke-width="2.0"/>
<text x="172.564065" y="128.000000" fill="rgb(0,0,0)"  stroke="rgb(0,0,0)" stroke-width="1" font-size="16" >C</text>
<text x="68.641016" y="108.000000" fill="rgb(0,0,0)"  stroke="rgb(0,0,0)" stroke-width="1" font-size="16" >C</text>
<text x="103.282032" y="128.000000" fill="rgb(0,0,0)"  stroke="rgb(0,0,0)" stroke-width="1" font-size="16" >C</text>
<text x="207.205081" y="108.000000" fill="rgb(0,0,0)"  stroke="rgb(0,0,0)" stroke-width="1" font-size="16" >O</text>
<text x="207.205081" y="68.000000" fill="rgb(0,0,0)"  stroke="rgb(0,0,0)" stroke-width="1" font-size="16" >O</text>
<text x="137.923048" y="108.000000" fill="rgb(0,0,0)"  stroke="rgb(0,0,0)" stroke-width="1" font-size="16" >O</text>
<text x="241.846097" y="48.000000" fill="rgb(0,0,0)"  stroke="rgb(0,0,0)" stroke-width="1" font-size="16" >H</text>
<text x="152.564065" y="162.641016" fill="rgb(0,0,0)"  stroke="rgb(0,0,0)" stroke-width="1" font-size="16" >H</text>
<text x="192.564065" y="162.641016" fill="rgb(0,0,0)"  stroke="rgb(0,0,0)" stroke-width="1" font-size="16" >H</text>
<text x="103.282032" y="168.000000" fill="rgb(0,0,0)"  stroke="rgb(0,0,0)" stroke-width="1" font-size="16" >H</text>
<text x="68.641016" y="68.000000" fill="rgb(0,0,0)"  stroke="rgb(0,0,0)" stroke-width="1" font-size="16" >H</text>
<text x="34.000000" y="128.000000" fill="rgb(0,0,0)"  stroke="rgb(0,0,0)" stroke-width="1" font-size="16" >H</text>
</svg>
</g>
</svg>
