<?xml version="1.0"?>
<svg version="1.1" id="topsvg"
xmlns="http://www.w3.org/2000/svg" xmlns:xlink="http://www.w3.org/1999/xlink"
xmlns:cml="http://www.xml-cml.org/schema" x="0" y="0" width="200px" height="200px" viewBox="0 0 100 100">
<title>KHP-123/mol_files/pp_133 - Open Babel Depiction</title>
<rect x="0" y="0" width="100" height="100" fill="white"/>
<g transform="translate(0,0)">
<svg width="100" height="100" x="0" y="0" viewBox="0 0 298.564 240"
font-family="sans-serif" stroke="rgb(0,0,0)" stroke-width="2"  stroke-linecap="round">
<line x1="84.4" y1="110.9" x2="96.5" y2="103.9" stroke="rgb(0,0,0)"  stroke-width="2.0"/>
<line x1="87.4" y1="116.1" x2="99.5" y2="109.1" stroke="rgb(0,0,0)"  stroke-width="2.0"/>
<line x1="63.4" y1="113.5" x2="51.3" y2="106.5" stroke="rgb(0,0,0)"  stroke-width="2.0"/>
<line x1="74.6" y1="133.0" x2="74.6" y2="147.0" stroke="rgb(0,0,0)"  stroke-width="2.0"/>
<line x1="119.0" y1="90.9" x2="131.2" y2="83.9" stroke="rgb(0,0,0)"  stroke-width="2.0"/>
<line x1="122.0" y1="96.1" x2="134.2" y2="89.1" stroke="rgb(0,0,0)"  stroke-width="2.0"/>
<line x1="153.7" y1="70.9" x2="165.8" y2="63.9" stroke="rgb(0,0,0)"  stroke-width="2.0"/>
<line x1="156.7" y1="76.1" x2="168.8" y2="69.1" stroke="rgb(0,0,0)"  stroke-width="2.0"/>
<line x1="40.0" y1="87.0" x2="40.0" y2="73.0" stroke="rgb(0,0,0)"  stroke-width="2.0"/>
<line x1="51.3" y1="53.5" x2="63.4" y2="46.5" stroke="rgb(0,0,0)"  stroke-width="2.0"/>
<line x1="245.6" y1="40.0" x2="231.6" y2="40.0" stroke="rgb(0,0,0)"  stroke-width="2.0"/>
<line x1="67.0" y1="200.0" x2="53.0" y2="200.0" stroke="rgb(0,0,0)"  stroke-width="2.0"/>
<text x="68.641016" y="128.000000" fill="rgb(0,0,0)"  stroke="rgb(0,0,0)" stroke-width="1" font-size="16" >C</text>
<text x="103.282032" y="108.000000" fill="rgb(0,0,0)"  stroke="rgb(0,0,0)" stroke-width="1" font-size="16" >C</text>
<text x="137.923048" y="88.000000" fill="rgb(0,0,0)"  stroke="rgb(0,0,0)" stroke-width="1" font-size="16" >C</text>
<text x="34.000000" y="108.000000" fill="rgb(0,0,0)"  stroke="rgb(0,0,0)" stroke-width="1" font-size="16" >O</text>
<text x="34.000000" y="68.000000" fill="rgb(0,0,0)"  stroke="rgb(0,0,0)" stroke-width="1" font-size="16" >O</text>
<text x="172.564065" y="68.000000" fill="rgb(0,0,0)"  stroke="rgb(0,0,0)" stroke-width="1" font-size="16" >O</text>
<text x="68.641016" y="48.000000" fill="rgb(0,0,0)"  stroke="rgb(0,0,0)" stroke-width="1" font-size="16" >H</text>
<text x="252.564065" y="48.000000" fill="rgb(0,0,0)"  stroke="rgb(0,0,0)" stroke-width="1" font-size="16" >H</text>
<text x="68.641016" y="168.000000" fill="rgb(0,0,0)"  stroke="rgb(0,0,0)" stroke-width="1" font-size="16" >H</text>
<text x="74.000000" y="208.000000" fill="rgb(0,0,0)"  stroke="rgb(0,0,0)" stroke-width="1" font-size="16" >H</text>
<text x="212.564065" y="48.000000" fill="rgb(0,0,0)"  stroke="rgb(0,0,0)" stroke-width="1" font-size="16" >H</text>
<text x="34.000000" y="208.000000" fill="rgb(0,0,0)"  stroke="rgb(0,0,0)" stroke-width="1" font-size="16" >H</text>
</svg>
</g>
</svg>
