<?xml version="1.0"?>
<svg version="1.1" id="topsvg"
xmlns="http://www.w3.org/2000/svg" xmlns:xlink="http://www.w3.org/1999/xlink"
xmlns:cml="http://www.xml-cml.org/schema" x="0" y="0" width="200px" height="200px" viewBox="0 0 100 100">
<title>KHP-123/mol_files/pp_106 - Open Babel Depiction</title>
<rect x="0" y="0" width="100" height="100" fill="white"/>
<g transform="translate(0,0)">
<svg width="100" height="100" x="0" y="0" viewBox="0 0 362.487 260"
font-family="sans-serif" stroke="rgb(0,0,0)" stroke-width="2"  stroke-linecap="round">
<line x1="131.2" y1="96.1" x2="119.0" y2="89.1" stroke="rgb(0,0,0)"  stroke-width="2.0"/>
<line x1="134.2" y1="90.9" x2="122.0" y2="83.9" stroke="rgb(0,0,0)"  stroke-width="2.0"/>
<line x1="143.9" y1="113.0" x2="143.9" y2="127.0" stroke="rgb(0,0,0)"  stroke-width="2.0"/>
<line x1="155.2" y1="93.5" x2="167.3" y2="86.5" stroke="rgb(0,0,0)"  stroke-width="2.0"/>
<line x1="96.5" y1="76.1" x2="84.4" y2="69.1" stroke="rgb(0,0,0)"  stroke-width="2.0"/>
<line x1="99.5" y1="70.9" x2="87.4" y2="63.9" stroke="rgb(0,0,0)"  stroke-width="2.0"/>
<line x1="61.9" y1="56.1" x2="49.8" y2="49.1" stroke="rgb(0,0,0)"  stroke-width="2.0"/>
<line x1="64.9" y1="50.9" x2="52.8" y2="43.9" stroke="rgb(0,0,0)"  stroke-width="2.0"/>
<line x1="264.5" y1="53.5" x2="276.6" y2="46.5" stroke="rgb(0,0,0)"  stroke-width="2.0"/>
<line x1="241.9" y1="53.5" x2="229.8" y2="46.5" stroke="rgb(0,0,0)"  stroke-width="2.0"/>
<line x1="299.1" y1="46.5" x2="311.2" y2="53.5" stroke="rgb(0,0,0)"  stroke-width="2.0"/>
<line x1="67.0" y1="220.0" x2="53.0" y2="220.0" stroke="rgb(0,0,0)"  stroke-width="2.0"/>
<text x="137.923048" y="108.000000" fill="rgb(0,0,0)"  stroke="rgb(0,0,0)" stroke-width="1" font-size="16" >C</text>
<text x="103.282032" y="88.000000" fill="rgb(0,0,0)"  stroke="rgb(0,0,0)" stroke-width="1" font-size="16" >C</text>
<text x="68.641016" y="68.000000" fill="rgb(0,0,0)"  stroke="rgb(0,0,0)" stroke-width="1" font-size="16" >C</text>
<text x="247.205081" y="68.000000" fill="rgb(0,0,0)"  stroke="rgb(0,0,0)" stroke-width="1" font-size="16" >O</text>
<text x="281.846097" y="48.000000" fill="rgb(0,0,0)"  stroke="rgb(0,0,0)" stroke-width="1" font-size="16" >O</text>
<text x="34.000000" y="48.000000" fill="rgb(0,0,0)"  stroke="rgb(0,0,0)" stroke-width="1" font-size="16" >O</text>
<text x="316.487113" y="68.000000" fill="rgb(0,0,0)"  stroke="rgb(0,0,0)" stroke-width="1" font-size="16" >H</text>
<text x="137.923048" y="148.000000" fill="rgb(0,0,0)"  stroke="rgb(0,0,0)" stroke-width="1" font-size="16" >H</text>
<text x="172.564065" y="88.000000" fill="rgb(0,0,0)"  stroke="rgb(0,0,0)" stroke-width="1" font-size="16" >H</text>
<text x="74.000000" y="228.000000" fill="rgb(0,0,0)"  stroke="rgb(0,0,0)" stroke-width="1" font-size="16" >H</text>
<text x="212.564065" y="48.000000" fill="rgb(0,0,0)"  stroke="rgb(0,0,0)" stroke-width="1" font-size="16" >H</text>
<text x="34.000000" y="228.000000" fill="rgb(0,0,0)"  stroke="rgb(0,0,0)" stroke-width="1" font-size="16" >H</text>
</svg>
</g>
</svg>
