<?xml version="1.0"?>
<svg version="1.1" id="topsvg"
xmlns="http://www.w3.org/2000/svg" xmlns:xlink="http://www.w3.org/1999/xlink"
xmlns:cml="http://www.xml-cml.org/schema" x="0" y="0" width="200px" height="200px" viewBox="0 0 100 100">
<title>KHP-123/mol_files/pp_165 - Open Babel Depiction</title>
<rect x="0" y="0" width="100" height="100" fill="white"/>
<g transform="translate(0,0)">
<svg width="100" height="100" x="0" y="0" viewBox="0 0 295.261 209.31"
font-family="sans-serif" stroke="rgb(0,0,0)" stroke-width="2"  stroke-linecap="round">
<line x1="140.1" y1="142.5" x2="141.5" y2="156.4" stroke="rgb(0,0,0)"  stroke-width="2.0"/>
<line x1="150.6" y1="134.8" x2="163.4" y2="140.5" stroke="rgb(0,0,0)"  stroke-width="2.0"/>
<line x1="91.1" y1="140.0" x2="82.8" y2="151.4" stroke="rgb(0,0,0)"  stroke-width="2.0"/>
<line x1="74.0" y1="87.5" x2="60.7" y2="83.1" stroke="rgb(0,0,0)"  stroke-width="2.0"/>
<line x1="45.6" y1="66.4" x2="42.7" y2="52.7" stroke="rgb(0,0,0)"  stroke-width="2.0"/>
<line x1="242.3" y1="40.0" x2="228.3" y2="40.0" stroke="rgb(0,0,0)"  stroke-width="2.0"/>
<line x1="111.7" y1="129.5" x2="125.7" y2="129.5" stroke="rgb(0,0,0)"  stroke-width="2.0"/>
<line x1="142.7" y1="117.2" x2="147.1" y2="103.9" stroke="rgb(0,0,0)"  stroke-width="2.0"/>
<line x1="140.6" y1="83.8" x2="129.2" y2="75.6" stroke="rgb(0,0,0)"  stroke-width="2.0"/>
<line x1="108.2" y1="75.6" x2="96.9" y2="83.8" stroke="rgb(0,0,0)"  stroke-width="2.0"/>
<line x1="90.4" y1="104.0" x2="94.6" y2="117.0" stroke="rgb(0,0,0)"  stroke-width="2.0"/>
<line x1="97.9" y1="103.7" x2="100.9" y2="112.8" stroke="rgb(0,0,0)"  stroke-width="2.0"/>
<text x="132.719408" y="137.528844" fill="rgb(0,0,0)"  stroke="rgb(0,0,0)" stroke-width="1" font-size="16" >C</text>
<text x="92.719408" y="137.528844" fill="rgb(0,0,0)"  stroke="rgb(0,0,0)" stroke-width="1" font-size="16" >C</text>
<text x="80.358728" y="99.486584" fill="rgb(0,0,0)"  stroke="rgb(0,0,0)" stroke-width="1" font-size="16" >C</text>
<text x="145.080088" y="99.486584" fill="rgb(0,0,0)"  stroke="rgb(0,0,0)" stroke-width="1" font-size="16" >O</text>
<text x="112.719408" y="75.975174" fill="rgb(0,0,0)"  stroke="rgb(0,0,0)" stroke-width="1" font-size="16" >O</text>
<text x="42.316468" y="87.125904" fill="rgb(0,0,0)"  stroke="rgb(0,0,0)" stroke-width="1" font-size="16" >O</text>
<text x="249.261226" y="48.000000" fill="rgb(0,0,0)"  stroke="rgb(0,0,0)" stroke-width="1" font-size="16" >H</text>
<text x="136.900547" y="177.309720" fill="rgb(0,0,0)"  stroke="rgb(0,0,0)" stroke-width="1" font-size="16" >H</text>
<text x="169.261226" y="153.798310" fill="rgb(0,0,0)"  stroke="rgb(0,0,0)" stroke-width="1" font-size="16" >H</text>
<text x="209.261226" y="48.000000" fill="rgb(0,0,0)"  stroke="rgb(0,0,0)" stroke-width="1" font-size="16" >H</text>
<text x="34.000000" y="48.000000" fill="rgb(0,0,0)"  stroke="rgb(0,0,0)" stroke-width="1" font-size="16" >H</text>
<text x="69.207998" y="169.889524" fill="rgb(0,0,0)"  stroke="rgb(0,0,0)" stroke-width="1" font-size="16" >H</text>
</svg>
</g>
</svg>
