<?xml version="1.0"?>
<svg version="1.1" id="topsvg"
xmlns="http://www.w3.org/2000/svg" xmlns:xlink="http://www.w3.org/1999/xlink"
xmlns:cml="http://www.xml-cml.org/schema" x="0" y="0" width="200px" height="200px" viewBox="0 0 100 100">
<title>KHP-123/mol_files/pp_18 - Open Babel Depiction</title>
<rect x="0" y="0" width="100" height="100" fill="white"/>
<g transform="translate(0,0)">
<svg width="100" height="100" x="0" y="0" viewBox="0 0 274.641 223.923"
font-family="sans-serif" stroke="rgb(0,0,0)" stroke-width="2"  stroke-linecap="round">
<line x1="173.0" y1="143.9" x2="187.0" y2="143.9" stroke="rgb(0,0,0)"  stroke-width="2.0"/>
<line x1="153.5" y1="132.7" x2="146.5" y2="120.5" stroke="rgb(0,0,0)"  stroke-width="2.0"/>
<line x1="148.7" y1="150.4" x2="136.6" y2="157.4" stroke="rgb(0,0,0)"  stroke-width="2.0"/>
<line x1="160.0" y1="156.9" x2="160.0" y2="170.9" stroke="rgb(0,0,0)"  stroke-width="2.0"/>
<line x1="211.3" y1="137.4" x2="223.4" y2="130.4" stroke="rgb(0,0,0)"  stroke-width="2.0"/>
<line x1="200.0" y1="130.9" x2="200.0" y2="116.9" stroke="rgb(0,0,0)"  stroke-width="2.0"/>
<line x1="206.5" y1="155.2" x2="213.5" y2="167.3" stroke="rgb(0,0,0)"  stroke-width="2.0"/>
<line x1="86.5" y1="85.9" x2="93.5" y2="98.0" stroke="rgb(0,0,0)"  stroke-width="2.0"/>
<line x1="83.9" y1="61.9" x2="90.9" y2="49.8" stroke="rgb(0,0,0)"  stroke-width="2.0"/>
<line x1="89.1" y1="64.9" x2="96.1" y2="52.8" stroke="rgb(0,0,0)"  stroke-width="2.0"/>
<line x1="67.0" y1="74.6" x2="53.0" y2="74.6" stroke="rgb(0,0,0)"  stroke-width="2.0"/>
<line x1="127.0" y1="109.3" x2="113.0" y2="109.3" stroke="rgb(0,0,0)"  stroke-width="2.0"/>
<text x="154.000000" y="151.923048" fill="rgb(0,0,0)"  stroke="rgb(0,0,0)" stroke-width="1" font-size="16" >C</text>
<text x="194.000000" y="151.923048" fill="rgb(0,0,0)"  stroke="rgb(0,0,0)" stroke-width="1" font-size="16" >C</text>
<text x="74.000000" y="82.641016" fill="rgb(0,0,0)"  stroke="rgb(0,0,0)" stroke-width="1" font-size="16" >C</text>
<text x="134.000000" y="117.282032" fill="rgb(0,0,0)"  stroke="rgb(0,0,0)" stroke-width="1" font-size="16" >O</text>
<text x="94.000000" y="117.282032" fill="rgb(0,0,0)"  stroke="rgb(0,0,0)" stroke-width="1" font-size="16" >O</text>
<text x="94.000000" y="48.000000" fill="rgb(0,0,0)"  stroke="rgb(0,0,0)" stroke-width="1" font-size="16" >O</text>
<text x="228.641016" y="131.923048" fill="rgb(0,0,0)"  stroke="rgb(0,0,0)" stroke-width="1" font-size="16" >H</text>
<text x="119.358984" y="171.923048" fill="rgb(0,0,0)"  stroke="rgb(0,0,0)" stroke-width="1" font-size="16" >H</text>
<text x="154.000000" y="191.923048" fill="rgb(0,0,0)"  stroke="rgb(0,0,0)" stroke-width="1" font-size="16" >H</text>
<text x="34.000000" y="82.641016" fill="rgb(0,0,0)"  stroke="rgb(0,0,0)" stroke-width="1" font-size="16" >H</text>
<text x="194.000000" y="111.923048" fill="rgb(0,0,0)"  stroke="rgb(0,0,0)" stroke-width="1" font-size="16" >H</text>
<text x="214.000000" y="186.564065" fill="rgb(0,0,0)"  stroke="rgb(0,0,0)" stroke-width="1" font-size="16" >H</text>
</svg>
</g>
</svg>
