<?xml version="1.0"?>
<svg version="1.1" id="topsvg"
xmlns="http://www.w3.org/2000/svg" xmlns:xlink="http://www.w3.org/1999/xlink"
xmlns:cml="http://www.xml-cml.org/schema" x="0" y="0" width="200px" height="200px" viewBox="0 0 100 100">
<title>KHP-123/mol_files/pp_123 - Open Babel Depiction</title>
<rect x="0" y="0" width="100" height="100" fill="white"/>
<g transform="translate(0,0)">
<svg width="100" height="100" x="0" y="0" viewBox="0 0 340 214.641"
font-family="sans-serif" stroke="rgb(0,0,0)" stroke-width="2"  stroke-linecap="round">
<line x1="107.0" y1="74.6" x2="93.0" y2="74.6" stroke="rgb(0,0,0)"  stroke-width="2.0"/>
<line x1="107.0" y1="78.8" x2="93.0" y2="78.8" stroke="rgb(0,0,0)"  stroke-width="2.0"/>
<line x1="107.0" y1="70.4" x2="93.0" y2="70.4" stroke="rgb(0,0,0)"  stroke-width="2.0"/>
<line x1="133.0" y1="74.6" x2="147.0" y2="74.6" stroke="rgb(0,0,0)"  stroke-width="2.0"/>
<line x1="67.0" y1="74.6" x2="53.0" y2="74.6" stroke="rgb(0,0,0)"  stroke-width="2.0"/>
<line x1="84.4" y1="125.5" x2="96.5" y2="118.5" stroke="rgb(0,0,0)"  stroke-width="2.0"/>
<line x1="87.4" y1="130.7" x2="99.5" y2="123.7" stroke="rgb(0,0,0)"  stroke-width="2.0"/>
<line x1="63.4" y1="128.1" x2="51.3" y2="121.1" stroke="rgb(0,0,0)"  stroke-width="2.0"/>
<line x1="74.6" y1="147.6" x2="74.6" y2="161.6" stroke="rgb(0,0,0)"  stroke-width="2.0"/>
<line x1="166.5" y1="63.4" x2="173.5" y2="51.3" stroke="rgb(0,0,0)"  stroke-width="2.0"/>
<line x1="193.0" y1="40.0" x2="207.0" y2="40.0" stroke="rgb(0,0,0)"  stroke-width="2.0"/>
<line x1="287.0" y1="40.0" x2="273.0" y2="40.0" stroke="rgb(0,0,0)"  stroke-width="2.0"/>
<text x="114.000000" y="82.641016" fill="rgb(0,0,0)"  stroke="rgb(0,0,0)" stroke-width="1" font-size="16" >C</text>
<text x="74.000000" y="82.641016" fill="rgb(0,0,0)"  stroke="rgb(0,0,0)" stroke-width="1" font-size="16" >C</text>
<text x="68.641016" y="142.641016" fill="rgb(0,0,0)"  stroke="rgb(0,0,0)" stroke-width="1" font-size="16" >C</text>
<text x="154.000000" y="82.641016" fill="rgb(0,0,0)"  stroke="rgb(0,0,0)" stroke-width="1" font-size="16" >O</text>
<text x="174.000000" y="48.000000" fill="rgb(0,0,0)"  stroke="rgb(0,0,0)" stroke-width="1" font-size="16" >O</text>
<text x="103.282032" y="122.641016" fill="rgb(0,0,0)"  stroke="rgb(0,0,0)" stroke-width="1" font-size="16" >O</text>
<text x="214.000000" y="48.000000" fill="rgb(0,0,0)"  stroke="rgb(0,0,0)" stroke-width="1" font-size="16" >H</text>
<text x="34.000000" y="122.641016" fill="rgb(0,0,0)"  stroke="rgb(0,0,0)" stroke-width="1" font-size="16" >H</text>
<text x="294.000000" y="48.000000" fill="rgb(0,0,0)"  stroke="rgb(0,0,0)" stroke-width="1" font-size="16" >H</text>
<text x="68.641016" y="182.641016" fill="rgb(0,0,0)"  stroke="rgb(0,0,0)" stroke-width="1" font-size="16" >H</text>
<text x="254.000000" y="48.000000" fill="rgb(0,0,0)"  stroke="rgb(0,0,0)" stroke-width="1" font-size="16" >H</text>
<text x="34.000000" y="82.641016" fill="rgb(0,0,0)"  stroke="rgb(0,0,0)" stroke-width="1" font-size="16" >H</text>
</svg>
</g>
</svg>
