<?xml version="1.0"?>
<svg version="1.1" id="topsvg"
xmlns="http://www.w3.org/2000/svg" xmlns:xlink="http://www.w3.org/1999/xlink"
xmlns:cml="http://www.xml-cml.org/schema" x="0" y="0" width="200px" height="200px" viewBox="0 0 100 100">
<title>KHP-123/mol_files/pp_132 - Open Babel Depiction</title>
<rect x="0" y="0" width="100" height="100" fill="white"/>
<g transform="translate(0,0)">
<svg width="100" height="100" x="0" y="0" viewBox="0 0 322.487 240"
font-family="sans-serif" stroke="rgb(0,0,0)" stroke-width="2"  stroke-linecap="round">
<line x1="153.7" y1="110.9" x2="165.8" y2="103.9" stroke="rgb(0,0,0)"  stroke-width="2.0"/>
<line x1="156.7" y1="116.1" x2="168.8" y2="109.1" stroke="rgb(0,0,0)"  stroke-width="2.0"/>
<line x1="132.7" y1="113.5" x2="120.5" y2="106.5" stroke="rgb(0,0,0)"  stroke-width="2.0"/>
<line x1="143.9" y1="133.0" x2="143.9" y2="147.0" stroke="rgb(0,0,0)"  stroke-width="2.0"/>
<line x1="188.3" y1="90.9" x2="200.4" y2="83.9" stroke="rgb(0,0,0)"  stroke-width="2.0"/>
<line x1="191.3" y1="96.1" x2="203.4" y2="89.1" stroke="rgb(0,0,0)"  stroke-width="2.0"/>
<line x1="224.5" y1="86.5" x2="236.6" y2="93.5" stroke="rgb(0,0,0)"  stroke-width="2.0"/>
<line x1="213.2" y1="67.0" x2="213.2" y2="53.0" stroke="rgb(0,0,0)"  stroke-width="2.0"/>
<line x1="98.0" y1="106.5" x2="85.9" y2="113.5" stroke="rgb(0,0,0)"  stroke-width="2.0"/>
<line x1="63.4" y1="113.5" x2="51.3" y2="106.5" stroke="rgb(0,0,0)"  stroke-width="2.0"/>
<line x1="259.1" y1="93.5" x2="271.2" y2="86.5" stroke="rgb(0,0,0)"  stroke-width="2.0"/>
<line x1="67.0" y1="200.0" x2="53.0" y2="200.0" stroke="rgb(0,0,0)"  stroke-width="2.0"/>
<text x="137.923048" y="128.000000" fill="rgb(0,0,0)"  stroke="rgb(0,0,0)" stroke-width="1" font-size="16" >C</text>
<text x="172.564065" y="108.000000" fill="rgb(0,0,0)"  stroke="rgb(0,0,0)" stroke-width="1" font-size="16" >C</text>
<text x="207.205081" y="88.000000" fill="rgb(0,0,0)"  stroke="rgb(0,0,0)" stroke-width="1" font-size="16" >C</text>
<text x="103.282032" y="108.000000" fill="rgb(0,0,0)"  stroke="rgb(0,0,0)" stroke-width="1" font-size="16" >O</text>
<text x="68.641016" y="128.000000" fill="rgb(0,0,0)"  stroke="rgb(0,0,0)" stroke-width="1" font-size="16" >O</text>
<text x="241.846097" y="108.000000" fill="rgb(0,0,0)"  stroke="rgb(0,0,0)" stroke-width="1" font-size="16" >O</text>
<text x="34.000000" y="108.000000" fill="rgb(0,0,0)"  stroke="rgb(0,0,0)" stroke-width="1" font-size="16" >H</text>
<text x="74.000000" y="208.000000" fill="rgb(0,0,0)"  stroke="rgb(0,0,0)" stroke-width="1" font-size="16" >H</text>
<text x="137.923048" y="168.000000" fill="rgb(0,0,0)"  stroke="rgb(0,0,0)" stroke-width="1" font-size="16" >H</text>
<text x="207.205081" y="48.000000" fill="rgb(0,0,0)"  stroke="rgb(0,0,0)" stroke-width="1" font-size="16" >H</text>
<text x="34.000000" y="208.000000" fill="rgb(0,0,0)"  stroke="rgb(0,0,0)" stroke-width="1" font-size="16" >H</text>
<text x="276.487113" y="88.000000" fill="rgb(0,0,0)"  stroke="rgb(0,0,0)" stroke-width="1" font-size="16" >H</text>
</svg>
</g>
</svg>
