<?xml version="1.0"?>
<svg version="1.1" id="topsvg"
xmlns="http://www.w3.org/2000/svg" xmlns:xlink="http://www.w3.org/1999/xlink"
xmlns:cml="http://www.xml-cml.org/schema" x="0" y="0" width="200px" height="200px" viewBox="0 0 100 100">
<title>KHP-123/mol_files/pp_138 - Open Babel Depiction</title>
<rect x="0" y="0" width="100" height="100" fill="white"/>
<g transform="translate(0,0)">
<svg width="100" height="100" x="0" y="0" viewBox="0 0 300.806 221.554"
font-family="sans-serif" stroke="rgb(0,0,0)" stroke-width="2"  stroke-linecap="round">
<line x1="155.1" y1="82.1" x2="168.4" y2="86.4" stroke="rgb(0,0,0)"  stroke-width="2.0"/>
<line x1="110.4" y1="114.6" x2="110.4" y2="128.6" stroke="rgb(0,0,0)"  stroke-width="2.0"/>
<line x1="66.6" y1="84.9" x2="53.3" y2="89.2" stroke="rgb(0,0,0)"  stroke-width="2.0"/>
<line x1="64.8" y1="79.2" x2="51.4" y2="83.5" stroke="rgb(0,0,0)"  stroke-width="2.0"/>
<line x1="247.8" y1="40.0" x2="233.8" y2="40.0" stroke="rgb(0,0,0)"  stroke-width="2.0"/>
<line x1="67.0" y1="181.6" x2="53.0" y2="181.6" stroke="rgb(0,0,0)"  stroke-width="2.0"/>
<line x1="121.1" y1="93.8" x2="132.1" y2="85.8" stroke="rgb(0,0,0)"  stroke-width="2.0"/>
<line x1="118.5" y1="86.8" x2="126.2" y2="81.2" stroke="rgb(0,0,0)"  stroke-width="2.0"/>
<line x1="138.7" y1="65.7" x2="134.4" y2="52.4" stroke="rgb(0,0,0)"  stroke-width="2.0"/>
<line x1="117.4" y1="40.0" x2="103.4" y2="40.0" stroke="rgb(0,0,0)"  stroke-width="2.0"/>
<line x1="86.4" y1="52.4" x2="82.1" y2="65.7" stroke="rgb(0,0,0)"  stroke-width="2.0"/>
<line x1="88.6" y1="85.7" x2="99.9" y2="93.9" stroke="rgb(0,0,0)"  stroke-width="2.0"/>
<text x="136.763620" y="86.042261" fill="rgb(0,0,0)"  stroke="rgb(0,0,0)" stroke-width="1" font-size="16" >C</text>
<text x="104.402940" y="109.553671" fill="rgb(0,0,0)"  stroke="rgb(0,0,0)" stroke-width="1" font-size="16" >C</text>
<text x="72.042261" y="86.042261" fill="rgb(0,0,0)"  stroke="rgb(0,0,0)" stroke-width="1" font-size="16" >C</text>
<text x="124.402940" y="48.000000" fill="rgb(0,0,0)"  stroke="rgb(0,0,0)" stroke-width="1" font-size="16" >O</text>
<text x="84.402940" y="48.000000" fill="rgb(0,0,0)"  stroke="rgb(0,0,0)" stroke-width="1" font-size="16" >O</text>
<text x="34.000000" y="98.402940" fill="rgb(0,0,0)"  stroke="rgb(0,0,0)" stroke-width="1" font-size="16" >O</text>
<text x="254.805881" y="48.000000" fill="rgb(0,0,0)"  stroke="rgb(0,0,0)" stroke-width="1" font-size="16" >H</text>
<text x="74.000000" y="189.553671" fill="rgb(0,0,0)"  stroke="rgb(0,0,0)" stroke-width="1" font-size="16" >H</text>
<text x="174.805881" y="98.402940" fill="rgb(0,0,0)"  stroke="rgb(0,0,0)" stroke-width="1" font-size="16" >H</text>
<text x="214.805881" y="48.000000" fill="rgb(0,0,0)"  stroke="rgb(0,0,0)" stroke-width="1" font-size="16" >H</text>
<text x="34.000000" y="189.553671" fill="rgb(0,0,0)"  stroke="rgb(0,0,0)" stroke-width="1" font-size="16" >H</text>
<text x="104.402940" y="149.553671" fill="rgb(0,0,0)"  stroke="rgb(0,0,0)" stroke-width="1" font-size="16" >H</text>
</svg>
</g>
</svg>
