<?xml version="1.0"?>
<svg version="1.1" id="topsvg"
xmlns="http://www.w3.org/2000/svg" xmlns:xlink="http://www.w3.org/1999/xlink"
xmlns:cml="http://www.xml-cml.org/schema" x="0" y="0" width="200px" height="200px" viewBox="0 0 100 100">
<title>KHP-123/mol_files/pp_13 - Open Babel Depiction</title>
<rect x="0" y="0" width="100" height="100" fill="white"/>
<g transform="translate(0,0)">
<svg width="100" height="100" x="0" y="0" viewBox="0 0 298.564 200"
font-family="sans-serif" stroke="rgb(0,0,0)" stroke-width="2"  stroke-linecap="round">
<line x1="84.4" y1="110.9" x2="96.5" y2="103.9" stroke="rgb(0,0,0)"  stroke-width="2.0"/>
<line x1="87.4" y1="116.1" x2="99.5" y2="109.1" stroke="rgb(0,0,0)"  stroke-width="2.0"/>
<line x1="63.4" y1="113.5" x2="51.3" y2="106.5" stroke="rgb(0,0,0)"  stroke-width="2.0"/>
<line x1="74.6" y1="133.0" x2="74.6" y2="147.0" stroke="rgb(0,0,0)"  stroke-width="2.0"/>
<line x1="120.5" y1="106.5" x2="132.7" y2="113.5" stroke="rgb(0,0,0)"  stroke-width="2.0"/>
<line x1="109.3" y1="87.0" x2="109.3" y2="73.0" stroke="rgb(0,0,0)"  stroke-width="2.0"/>
<line x1="146.9" y1="133.0" x2="146.9" y2="147.0" stroke="rgb(0,0,0)"  stroke-width="2.0"/>
<line x1="140.9" y1="133.0" x2="140.9" y2="147.0" stroke="rgb(0,0,0)"  stroke-width="2.0"/>
<line x1="155.2" y1="113.5" x2="167.3" y2="106.5" stroke="rgb(0,0,0)"  stroke-width="2.0"/>
<line x1="40.0" y1="87.0" x2="40.0" y2="73.0" stroke="rgb(0,0,0)"  stroke-width="2.0"/>
<line x1="51.3" y1="53.5" x2="63.4" y2="46.5" stroke="rgb(0,0,0)"  stroke-width="2.0"/>
<line x1="245.6" y1="40.0" x2="231.6" y2="40.0" stroke="rgb(0,0,0)"  stroke-width="2.0"/>
<text x="68.641016" y="128.000000" fill="rgb(0,0,0)"  stroke="rgb(0,0,0)" stroke-width="1" font-size="16" >C</text>
<text x="103.282032" y="108.000000" fill="rgb(0,0,0)"  stroke="rgb(0,0,0)" stroke-width="1" font-size="16" >C</text>
<text x="137.923048" y="128.000000" fill="rgb(0,0,0)"  stroke="rgb(0,0,0)" stroke-width="1" font-size="16" >C</text>
<text x="34.000000" y="108.000000" fill="rgb(0,0,0)"  stroke="rgb(0,0,0)" stroke-width="1" font-size="16" >O</text>
<text x="34.000000" y="68.000000" fill="rgb(0,0,0)"  stroke="rgb(0,0,0)" stroke-width="1" font-size="16" >O</text>
<text x="137.923048" y="168.000000" fill="rgb(0,0,0)"  stroke="rgb(0,0,0)" stroke-width="1" font-size="16" >O</text>
<text x="68.641016" y="48.000000" fill="rgb(0,0,0)"  stroke="rgb(0,0,0)" stroke-width="1" font-size="16" >H</text>
<text x="252.564065" y="48.000000" fill="rgb(0,0,0)"  stroke="rgb(0,0,0)" stroke-width="1" font-size="16" >H</text>
<text x="68.641016" y="168.000000" fill="rgb(0,0,0)"  stroke="rgb(0,0,0)" stroke-width="1" font-size="16" >H</text>
<text x="172.564065" y="108.000000" fill="rgb(0,0,0)"  stroke="rgb(0,0,0)" stroke-width="1" font-size="16" >H</text>
<text x="212.564065" y="48.000000" fill="rgb(0,0,0)"  stroke="rgb(0,0,0)" stroke-width="1" font-size="16" >H</text>
<text x="103.282032" y="68.000000" fill="rgb(0,0,0)"  stroke="rgb(0,0,0)" stroke-width="1" font-size="16" >H</text>
</svg>
</g>
</svg>
