<?xml version="1.0"?>
<svg version="1.1" id="topsvg"
xmlns="http://www.w3.org/2000/svg" xmlns:xlink="http://www.w3.org/1999/xlink"
xmlns:cml="http://www.xml-cml.org/schema" x="0" y="0" width="200px" height="200px" viewBox="0 0 100 100">
<title>KHP-123/mol_files/pp_149 - Open Babel Depiction</title>
<rect x="0" y="0" width="100" height="100" fill="white"/>
<g transform="translate(0,0)">
<svg width="100" height="100" x="0" y="0" viewBox="0 0 300 194.641"
font-family="sans-serif" stroke="rgb(0,0,0)" stroke-width="2"  stroke-linecap="round">
<line x1="206.5" y1="103.4" x2="213.5" y2="91.3" stroke="rgb(0,0,0)"  stroke-width="2.0"/>
<line x1="187.0" y1="114.6" x2="173.0" y2="114.6" stroke="rgb(0,0,0)"  stroke-width="2.0"/>
<line x1="200.0" y1="127.6" x2="200.0" y2="141.6" stroke="rgb(0,0,0)"  stroke-width="2.0"/>
<line x1="211.3" y1="121.1" x2="223.4" y2="128.1" stroke="rgb(0,0,0)"  stroke-width="2.0"/>
<line x1="220.0" y1="67.0" x2="220.0" y2="53.0" stroke="rgb(0,0,0)"  stroke-width="2.0"/>
<line x1="208.7" y1="73.5" x2="196.6" y2="66.5" stroke="rgb(0,0,0)"  stroke-width="2.0"/>
<line x1="233.0" y1="80.0" x2="247.0" y2="80.0" stroke="rgb(0,0,0)"  stroke-width="2.0"/>
<line x1="127.0" y1="152.3" x2="113.0" y2="152.3" stroke="rgb(0,0,0)"  stroke-width="2.0"/>
<line x1="127.0" y1="146.3" x2="113.0" y2="146.3" stroke="rgb(0,0,0)"  stroke-width="2.0"/>
<line x1="146.5" y1="138.0" x2="153.5" y2="125.9" stroke="rgb(0,0,0)"  stroke-width="2.0"/>
<line x1="93.5" y1="138.0" x2="86.5" y2="125.9" stroke="rgb(0,0,0)"  stroke-width="2.0"/>
<line x1="67.0" y1="114.6" x2="53.0" y2="114.6" stroke="rgb(0,0,0)"  stroke-width="2.0"/>
<text x="194.000000" y="122.641016" fill="rgb(0,0,0)"  stroke="rgb(0,0,0)" stroke-width="1" font-size="16" >C</text>
<text x="214.000000" y="88.000000" fill="rgb(0,0,0)"  stroke="rgb(0,0,0)" stroke-width="1" font-size="16" >C</text>
<text x="134.000000" y="157.282032" fill="rgb(0,0,0)"  stroke="rgb(0,0,0)" stroke-width="1" font-size="16" >C</text>
<text x="134.000000" y="173.282032" fill="rgb(0,0,0)"  stroke="rgb(0,0,0)" stroke-width="1" font-size="16" >H</text>
<text x="94.000000" y="157.282032" fill="rgb(0,0,0)"  stroke="rgb(0,0,0)" stroke-width="1" font-size="16" >O</text>
<text x="74.000000" y="122.641016" fill="rgb(0,0,0)"  stroke="rgb(0,0,0)" stroke-width="1" font-size="16" >O</text>
<text x="154.000000" y="122.641016" fill="rgb(0,0,0)"  stroke="rgb(0,0,0)" stroke-width="1" font-size="16" >O</text>
<text x="34.000000" y="122.641016" fill="rgb(0,0,0)"  stroke="rgb(0,0,0)" stroke-width="1" font-size="16" >H</text>
<text x="194.000000" y="162.641016" fill="rgb(0,0,0)"  stroke="rgb(0,0,0)" stroke-width="1" font-size="16" >H</text>
<text x="228.641016" y="142.641016" fill="rgb(0,0,0)"  stroke="rgb(0,0,0)" stroke-width="1" font-size="16" >H</text>
<text x="214.000000" y="48.000000" fill="rgb(0,0,0)"  stroke="rgb(0,0,0)" stroke-width="1" font-size="16" >H</text>
<text x="179.358984" y="68.000000" fill="rgb(0,0,0)"  stroke="rgb(0,0,0)" stroke-width="1" font-size="16" >H</text>
<text x="254.000000" y="88.000000" fill="rgb(0,0,0)"  stroke="rgb(0,0,0)" stroke-width="1" font-size="16" >H</text>
</svg>
</g>
</svg>
