<?xml version="1.0"?>
<svg version="1.1" id="topsvg"
xmlns="http://www.w3.org/2000/svg" xmlns:xlink="http://www.w3.org/1999/xlink"
xmlns:cml="http://www.xml-cml.org/schema" x="0" y="0" width="200px" height="200px" viewBox="0 0 100 100">
<title>KHP-123/mol_files/pp_130 - Open Babel Depiction</title>
<rect x="0" y="0" width="100" height="100" fill="white"/>
<g transform="translate(0,0)">
<svg width="100" height="100" x="0" y="0" viewBox="0 0 298.564 200"
font-family="sans-serif" stroke="rgb(0,0,0)" stroke-width="2"  stroke-linecap="round">
<line x1="134.2" y1="109.1" x2="122.0" y2="116.1" stroke="rgb(0,0,0)"  stroke-width="2.0"/>
<line x1="131.2" y1="103.9" x2="119.0" y2="110.9" stroke="rgb(0,0,0)"  stroke-width="2.0"/>
<line x1="155.2" y1="106.5" x2="167.3" y2="113.5" stroke="rgb(0,0,0)"  stroke-width="2.0"/>
<line x1="143.9" y1="87.0" x2="143.9" y2="73.0" stroke="rgb(0,0,0)"  stroke-width="2.0"/>
<line x1="98.0" y1="113.5" x2="85.9" y2="106.5" stroke="rgb(0,0,0)"  stroke-width="2.0"/>
<line x1="109.3" y1="133.0" x2="109.3" y2="147.0" stroke="rgb(0,0,0)"  stroke-width="2.0"/>
<line x1="71.6" y1="87.0" x2="71.6" y2="73.0" stroke="rgb(0,0,0)"  stroke-width="2.0"/>
<line x1="77.6" y1="87.0" x2="77.6" y2="73.0" stroke="rgb(0,0,0)"  stroke-width="2.0"/>
<line x1="63.4" y1="106.5" x2="51.3" y2="113.5" stroke="rgb(0,0,0)"  stroke-width="2.0"/>
<line x1="178.6" y1="133.0" x2="178.6" y2="147.0" stroke="rgb(0,0,0)"  stroke-width="2.0"/>
<line x1="132.7" y1="53.5" x2="120.5" y2="46.5" stroke="rgb(0,0,0)"  stroke-width="2.0"/>
<line x1="245.6" y1="40.0" x2="231.6" y2="40.0" stroke="rgb(0,0,0)"  stroke-width="2.0"/>
<text x="137.923048" y="108.000000" fill="rgb(0,0,0)"  stroke="rgb(0,0,0)" stroke-width="1" font-size="16" >C</text>
<text x="103.282032" y="128.000000" fill="rgb(0,0,0)"  stroke="rgb(0,0,0)" stroke-width="1" font-size="16" >C</text>
<text x="68.641016" y="108.000000" fill="rgb(0,0,0)"  stroke="rgb(0,0,0)" stroke-width="1" font-size="16" >C</text>
<text x="172.564065" y="128.000000" fill="rgb(0,0,0)"  stroke="rgb(0,0,0)" stroke-width="1" font-size="16" >O</text>
<text x="137.923048" y="68.000000" fill="rgb(0,0,0)"  stroke="rgb(0,0,0)" stroke-width="1" font-size="16" >O</text>
<text x="68.641016" y="68.000000" fill="rgb(0,0,0)"  stroke="rgb(0,0,0)" stroke-width="1" font-size="16" >O</text>
<text x="103.282032" y="48.000000" fill="rgb(0,0,0)"  stroke="rgb(0,0,0)" stroke-width="1" font-size="16" >H</text>
<text x="252.564065" y="48.000000" fill="rgb(0,0,0)"  stroke="rgb(0,0,0)" stroke-width="1" font-size="16" >H</text>
<text x="172.564065" y="168.000000" fill="rgb(0,0,0)"  stroke="rgb(0,0,0)" stroke-width="1" font-size="16" >H</text>
<text x="34.000000" y="128.000000" fill="rgb(0,0,0)"  stroke="rgb(0,0,0)" stroke-width="1" font-size="16" >H</text>
<text x="212.564065" y="48.000000" fill="rgb(0,0,0)"  stroke="rgb(0,0,0)" stroke-width="1" font-size="16" >H</text>
<text x="103.282032" y="168.000000" fill="rgb(0,0,0)"  stroke="rgb(0,0,0)" stroke-width="1" font-size="16" >H</text>
</svg>
</g>
</svg>
