<?xml version="1.0"?>
<svg version="1.1" id="topsvg"
xmlns="http://www.w3.org/2000/svg" xmlns:xlink="http://www.w3.org/1999/xlink"
xmlns:cml="http://www.xml-cml.org/schema" x="0" y="0" width="200px" height="200px" viewBox="0 0 100 100">
<title>KHP-123/mol_files/pp_155 - Open Babel Depiction</title>
<rect x="0" y="0" width="100" height="100" fill="white"/>
<g transform="translate(0,0)">
<svg width="100" height="100" x="0" y="0" viewBox="0 0 300 223.923"
font-family="sans-serif" stroke="rgb(0,0,0)" stroke-width="2"  stroke-linecap="round">
<line x1="93.5" y1="120.5" x2="86.5" y2="132.7" stroke="rgb(0,0,0)"  stroke-width="2.0"/>
<line x1="113.0" y1="109.3" x2="127.0" y2="109.3" stroke="rgb(0,0,0)"  stroke-width="2.0"/>
<line x1="100.0" y1="96.3" x2="100.0" y2="82.3" stroke="rgb(0,0,0)"  stroke-width="2.0"/>
<line x1="88.7" y1="102.8" x2="76.6" y2="95.8" stroke="rgb(0,0,0)"  stroke-width="2.0"/>
<line x1="80.0" y1="156.9" x2="80.0" y2="170.9" stroke="rgb(0,0,0)"  stroke-width="2.0"/>
<line x1="91.3" y1="150.4" x2="103.4" y2="157.4" stroke="rgb(0,0,0)"  stroke-width="2.0"/>
<line x1="67.0" y1="143.9" x2="53.0" y2="143.9" stroke="rgb(0,0,0)"  stroke-width="2.0"/>
<line x1="203.9" y1="61.9" x2="210.9" y2="49.8" stroke="rgb(0,0,0)"  stroke-width="2.0"/>
<line x1="209.1" y1="64.9" x2="216.1" y2="52.8" stroke="rgb(0,0,0)"  stroke-width="2.0"/>
<line x1="187.0" y1="74.6" x2="173.0" y2="74.6" stroke="rgb(0,0,0)"  stroke-width="2.0"/>
<line x1="146.5" y1="98.0" x2="153.5" y2="85.9" stroke="rgb(0,0,0)"  stroke-width="2.0"/>
<line x1="233.0" y1="40.0" x2="247.0" y2="40.0" stroke="rgb(0,0,0)"  stroke-width="2.0"/>
<text x="94.000000" y="117.282032" fill="rgb(0,0,0)"  stroke="rgb(0,0,0)" stroke-width="1" font-size="16" >C</text>
<text x="74.000000" y="151.923048" fill="rgb(0,0,0)"  stroke="rgb(0,0,0)" stroke-width="1" font-size="16" >C</text>
<text x="194.000000" y="82.641016" fill="rgb(0,0,0)"  stroke="rgb(0,0,0)" stroke-width="1" font-size="16" >C</text>
<text x="194.000000" y="98.641016" fill="rgb(0,0,0)"  stroke="rgb(0,0,0)" stroke-width="1" font-size="16" >H</text>
<text x="134.000000" y="117.282032" fill="rgb(0,0,0)"  stroke="rgb(0,0,0)" stroke-width="1" font-size="16" >O</text>
<text x="214.000000" y="48.000000" fill="rgb(0,0,0)"  stroke="rgb(0,0,0)" stroke-width="1" font-size="16" >O</text>
<text x="154.000000" y="82.641016" fill="rgb(0,0,0)"  stroke="rgb(0,0,0)" stroke-width="1" font-size="16" >O</text>
<text x="254.000000" y="48.000000" fill="rgb(0,0,0)"  stroke="rgb(0,0,0)" stroke-width="1" font-size="16" >H</text>
<text x="94.000000" y="77.282032" fill="rgb(0,0,0)"  stroke="rgb(0,0,0)" stroke-width="1" font-size="16" >H</text>
<text x="59.358984" y="97.282032" fill="rgb(0,0,0)"  stroke="rgb(0,0,0)" stroke-width="1" font-size="16" >H</text>
<text x="74.000000" y="191.923048" fill="rgb(0,0,0)"  stroke="rgb(0,0,0)" stroke-width="1" font-size="16" >H</text>
<text x="108.641016" y="171.923048" fill="rgb(0,0,0)"  stroke="rgb(0,0,0)" stroke-width="1" font-size="16" >H</text>
<text x="34.000000" y="151.923048" fill="rgb(0,0,0)"  stroke="rgb(0,0,0)" stroke-width="1" font-size="16" >H</text>
</svg>
</g>
</svg>
