<?xml version="1.0"?>
<svg version="1.1" id="topsvg"
xmlns="http://www.w3.org/2000/svg" xmlns:xlink="http://www.w3.org/1999/xlink"
xmlns:cml="http://www.xml-cml.org/schema" x="0" y="0" width="200px" height="200px" viewBox="0 0 100 100">
<title>KHP-123/mol_files/pp_111 - Open Babel Depiction</title>
<rect x="0" y="0" width="100" height="100" fill="white"/>
<g transform="translate(0,0)">
<svg width="100" height="100" x="0" y="0" viewBox="0 0 223.923 220"
font-family="sans-serif" stroke="rgb(0,0,0)" stroke-width="2"  stroke-linecap="round">
<line x1="136.3" y1="140.0" x2="122.3" y2="140.0" stroke="rgb(0,0,0)"  stroke-width="2.0"/>
<line x1="160.5" y1="133.5" x2="172.7" y2="126.5" stroke="rgb(0,0,0)"  stroke-width="2.0"/>
<line x1="149.3" y1="127.0" x2="149.3" y2="113.0" stroke="rgb(0,0,0)"  stroke-width="2.0"/>
<line x1="155.8" y1="151.3" x2="162.8" y2="163.4" stroke="rgb(0,0,0)"  stroke-width="2.0"/>
<line x1="109.3" y1="127.0" x2="109.3" y2="113.0" stroke="rgb(0,0,0)"  stroke-width="2.0"/>
<line x1="96.3" y1="140.0" x2="82.3" y2="140.0" stroke="rgb(0,0,0)"  stroke-width="2.0"/>
<line x1="110.1" y1="155.9" x2="108.5" y2="155.9" stroke="rgb(0,0,0)"  stroke-width="1.0"/>
<line x1="110.7" y1="158.1" x2="107.8" y2="158.1" stroke="rgb(0,0,0)"  stroke-width="1.0"/>
<line x1="111.4" y1="160.3" x2="107.2" y2="160.3" stroke="rgb(0,0,0)"  stroke-width="1.0"/>
<line x1="112.0" y1="162.4" x2="106.6" y2="162.4" stroke="rgb(0,0,0)"  stroke-width="1.0"/>
<line x1="112.6" y1="164.6" x2="105.9" y2="164.6" stroke="rgb(0,0,0)"  stroke-width="1.0"/>
<line x1="113.3" y1="166.8" x2="105.3" y2="166.8" stroke="rgb(0,0,0)"  stroke-width="1.0"/>
<line x1="85.9" y1="86.5" x2="98.0" y2="93.5" stroke="rgb(0,0,0)"  stroke-width="2.0"/>
<line x1="71.6" y1="67.0" x2="71.6" y2="53.0" stroke="rgb(0,0,0)"  stroke-width="2.0"/>
<line x1="77.6" y1="67.0" x2="77.6" y2="53.0" stroke="rgb(0,0,0)"  stroke-width="2.0"/>
<line x1="63.4" y1="86.5" x2="51.3" y2="93.5" stroke="rgb(0,0,0)"  stroke-width="2.0"/>
<line x1="62.8" y1="151.3" x2="55.8" y2="163.4" stroke="rgb(0,0,0)"  stroke-width="2.0"/>
<text x="143.282032" y="148.000000" fill="rgb(0,0,0)"  stroke="rgb(0,0,0)" stroke-width="1" font-size="16" >C</text>
<text x="103.282032" y="148.000000" fill="rgb(0,0,0)"  stroke="rgb(0,0,0)" stroke-width="1" font-size="16" >C</text>
<text x="68.641016" y="88.000000" fill="rgb(0,0,0)"  stroke="rgb(0,0,0)" stroke-width="1" font-size="16" >C</text>
<text x="103.282032" y="108.000000" fill="rgb(0,0,0)"  stroke="rgb(0,0,0)" stroke-width="1" font-size="16" >O</text>
<text x="63.282032" y="148.000000" fill="rgb(0,0,0)"  stroke="rgb(0,0,0)" stroke-width="1" font-size="16" >O</text>
<text x="68.641016" y="48.000000" fill="rgb(0,0,0)"  stroke="rgb(0,0,0)" stroke-width="1" font-size="16" >O</text>
<text x="43.282032" y="182.641016" fill="rgb(0,0,0)"  stroke="rgb(0,0,0)" stroke-width="1" font-size="16" >H</text>
<text x="177.923048" y="128.000000" fill="rgb(0,0,0)"  stroke="rgb(0,0,0)" stroke-width="1" font-size="16" >H</text>
<text x="143.282032" y="108.000000" fill="rgb(0,0,0)"  stroke="rgb(0,0,0)" stroke-width="1" font-size="16" >H</text>
<text x="34.000000" y="108.000000" fill="rgb(0,0,0)"  stroke="rgb(0,0,0)" stroke-width="1" font-size="16" >H</text>
<text x="163.282032" y="182.641016" fill="rgb(0,0,0)"  stroke="rgb(0,0,0)" stroke-width="1" font-size="16" >H</text>
<text x="103.282032" y="188.000000" fill="rgb(0,0,0)"  stroke="rgb(0,0,0)" stroke-width="1" font-size="16" >H</text>
</svg>
</g>
</svg>
