<?xml version="1.0"?>
<svg version="1.1" id="topsvg"
xmlns="http://www.w3.org/2000/svg" xmlns:xlink="http://www.w3.org/1999/xlink"
xmlns:cml="http://www.xml-cml.org/schema" x="0" y="0" width="200px" height="200px" viewBox="0 0 100 100">
<title>KHP-123/mol_files/pp_14 - Open Babel Depiction</title>
<rect x="0" y="0" width="100" height="100" fill="white"/>
<g transform="translate(0,0)">
<svg width="100" height="100" x="0" y="0" viewBox="0 0 327.846 174.641"
font-family="sans-serif" stroke="rgb(0,0,0)" stroke-width="2"  stroke-linecap="round">
<line x1="85.9" y1="88.1" x2="98.0" y2="81.1" stroke="rgb(0,0,0)"  stroke-width="2.0"/>
<line x1="61.9" y1="90.7" x2="49.8" y2="83.7" stroke="rgb(0,0,0)"  stroke-width="2.0"/>
<line x1="64.9" y1="85.5" x2="52.8" y2="78.5" stroke="rgb(0,0,0)"  stroke-width="2.0"/>
<line x1="74.6" y1="107.6" x2="74.6" y2="121.6" stroke="rgb(0,0,0)"  stroke-width="2.0"/>
<line x1="120.5" y1="81.1" x2="132.7" y2="88.1" stroke="rgb(0,0,0)"  stroke-width="2.0"/>
<line x1="115.8" y1="63.4" x2="122.8" y2="51.3" stroke="rgb(0,0,0)"  stroke-width="2.0"/>
<line x1="102.8" y1="63.4" x2="95.8" y2="51.3" stroke="rgb(0,0,0)"  stroke-width="2.0"/>
<line x1="146.9" y1="107.6" x2="146.9" y2="121.6" stroke="rgb(0,0,0)"  stroke-width="2.0"/>
<line x1="140.9" y1="107.6" x2="140.9" y2="121.6" stroke="rgb(0,0,0)"  stroke-width="2.0"/>
<line x1="155.2" y1="88.1" x2="167.3" y2="81.1" stroke="rgb(0,0,0)"  stroke-width="2.0"/>
<line x1="264.5" y1="53.5" x2="276.6" y2="46.5" stroke="rgb(0,0,0)"  stroke-width="2.0"/>
<line x1="241.9" y1="53.5" x2="229.8" y2="46.5" stroke="rgb(0,0,0)"  stroke-width="2.0"/>
<text x="68.641016" y="102.641016" fill="rgb(0,0,0)"  stroke="rgb(0,0,0)" stroke-width="1" font-size="16" >C</text>
<text x="103.282032" y="82.641016" fill="rgb(0,0,0)"  stroke="rgb(0,0,0)" stroke-width="1" font-size="16" >C</text>
<text x="137.923048" y="102.641016" fill="rgb(0,0,0)"  stroke="rgb(0,0,0)" stroke-width="1" font-size="16" >C</text>
<text x="34.000000" y="82.641016" fill="rgb(0,0,0)"  stroke="rgb(0,0,0)" stroke-width="1" font-size="16" >O</text>
<text x="247.205081" y="68.000000" fill="rgb(0,0,0)"  stroke="rgb(0,0,0)" stroke-width="1" font-size="16" >O</text>
<text x="137.923048" y="142.641016" fill="rgb(0,0,0)"  stroke="rgb(0,0,0)" stroke-width="1" font-size="16" >O</text>
<text x="281.846097" y="48.000000" fill="rgb(0,0,0)"  stroke="rgb(0,0,0)" stroke-width="1" font-size="16" >H</text>
<text x="212.564065" y="48.000000" fill="rgb(0,0,0)"  stroke="rgb(0,0,0)" stroke-width="1" font-size="16" >H</text>
<text x="68.641016" y="142.641016" fill="rgb(0,0,0)"  stroke="rgb(0,0,0)" stroke-width="1" font-size="16" >H</text>
<text x="172.564065" y="82.641016" fill="rgb(0,0,0)"  stroke="rgb(0,0,0)" stroke-width="1" font-size="16" >H</text>
<text x="123.282032" y="48.000000" fill="rgb(0,0,0)"  stroke="rgb(0,0,0)" stroke-width="1" font-size="16" >H</text>
<text x="83.282032" y="48.000000" fill="rgb(0,0,0)"  stroke="rgb(0,0,0)" stroke-width="1" font-size="16" >H</text>
</svg>
</g>
</svg>
