<?xml version="1.0"?>
<svg version="1.1" id="topsvg"
xmlns="http://www.w3.org/2000/svg" xmlns:xlink="http://www.w3.org/1999/xlink"
xmlns:cml="http://www.xml-cml.org/schema" x="0" y="0" width="200px" height="200px" viewBox="0 0 100 100">
<title>KHP-123/mol_files/pp_24 - Open Babel Depiction</title>
<rect x="0" y="0" width="100" height="100" fill="white"/>
<g transform="translate(0,0)">
<svg width="100" height="100" x="0" y="0" viewBox="0 0 260 194.641"
font-family="sans-serif" stroke="rgb(0,0,0)" stroke-width="2"  stroke-linecap="round">
<line x1="106.5" y1="103.4" x2="113.5" y2="91.3" stroke="rgb(0,0,0)"  stroke-width="2.0"/>
<line x1="87.0" y1="114.6" x2="73.0" y2="114.6" stroke="rgb(0,0,0)"  stroke-width="2.0"/>
<line x1="100.0" y1="127.6" x2="100.0" y2="141.6" stroke="rgb(0,0,0)"  stroke-width="2.0"/>
<line x1="111.3" y1="121.1" x2="123.4" y2="128.1" stroke="rgb(0,0,0)"  stroke-width="2.0"/>
<line x1="133.0" y1="80.0" x2="147.0" y2="80.0" stroke="rgb(0,0,0)"  stroke-width="2.0"/>
<line x1="120.0" y1="67.0" x2="120.0" y2="53.0" stroke="rgb(0,0,0)"  stroke-width="2.0"/>
<line x1="108.7" y1="73.5" x2="96.6" y2="66.5" stroke="rgb(0,0,0)"  stroke-width="2.0"/>
<line x1="166.5" y1="91.3" x2="173.5" y2="103.4" stroke="rgb(0,0,0)"  stroke-width="2.0"/>
<line x1="163.9" y1="67.2" x2="170.9" y2="55.1" stroke="rgb(0,0,0)"  stroke-width="2.0"/>
<line x1="169.1" y1="70.2" x2="176.1" y2="58.1" stroke="rgb(0,0,0)"  stroke-width="2.0"/>
<line x1="53.5" y1="125.9" x2="46.5" y2="138.0" stroke="rgb(0,0,0)"  stroke-width="2.0"/>
<line x1="193.0" y1="114.6" x2="207.0" y2="114.6" stroke="rgb(0,0,0)"  stroke-width="2.0"/>
<text x="94.000000" y="122.641016" fill="rgb(0,0,0)"  stroke="rgb(0,0,0)" stroke-width="1" font-size="16" >C</text>
<text x="114.000000" y="88.000000" fill="rgb(0,0,0)"  stroke="rgb(0,0,0)" stroke-width="1" font-size="16" >C</text>
<text x="154.000000" y="88.000000" fill="rgb(0,0,0)"  stroke="rgb(0,0,0)" stroke-width="1" font-size="16" >C</text>
<text x="54.000000" y="122.641016" fill="rgb(0,0,0)"  stroke="rgb(0,0,0)" stroke-width="1" font-size="16" >O</text>
<text x="174.000000" y="122.641016" fill="rgb(0,0,0)"  stroke="rgb(0,0,0)" stroke-width="1" font-size="16" >O</text>
<text x="174.000000" y="53.358984" fill="rgb(0,0,0)"  stroke="rgb(0,0,0)" stroke-width="1" font-size="16" >O</text>
<text x="214.000000" y="122.641016" fill="rgb(0,0,0)"  stroke="rgb(0,0,0)" stroke-width="1" font-size="16" >H</text>
<text x="94.000000" y="162.641016" fill="rgb(0,0,0)"  stroke="rgb(0,0,0)" stroke-width="1" font-size="16" >H</text>
<text x="128.641016" y="142.641016" fill="rgb(0,0,0)"  stroke="rgb(0,0,0)" stroke-width="1" font-size="16" >H</text>
<text x="34.000000" y="157.282032" fill="rgb(0,0,0)"  stroke="rgb(0,0,0)" stroke-width="1" font-size="16" >H</text>
<text x="114.000000" y="48.000000" fill="rgb(0,0,0)"  stroke="rgb(0,0,0)" stroke-width="1" font-size="16" >H</text>
<text x="79.358984" y="68.000000" fill="rgb(0,0,0)"  stroke="rgb(0,0,0)" stroke-width="1" font-size="16" >H</text>
</svg>
</g>
</svg>
