<?xml version="1.0"?>
<svg version="1.1" id="topsvg"
xmlns="http://www.w3.org/2000/svg" xmlns:xlink="http://www.w3.org/1999/xlink"
xmlns:cml="http://www.xml-cml.org/schema" x="0" y="0" width="200px" height="200px" viewBox="0 0 100 100">
<title>KHP-123/mol_files/pp_31 - Open Babel Depiction</title>
<rect x="0" y="0" width="100" height="100" fill="white"/>
<g transform="translate(0,0)">
<svg width="100" height="100" x="0" y="0" viewBox="0 0 258.564 240"
font-family="sans-serif" stroke="rgb(0,0,0)" stroke-width="2"  stroke-linecap="round">
<line x1="80.0" y1="113.0" x2="80.0" y2="127.0" stroke="rgb(0,0,0)"  stroke-width="2.0"/>
<line x1="91.3" y1="93.5" x2="103.4" y2="86.5" stroke="rgb(0,0,0)"  stroke-width="2.0"/>
<line x1="73.5" y1="88.7" x2="66.5" y2="76.6" stroke="rgb(0,0,0)"  stroke-width="2.0"/>
<line x1="67.0" y1="100.0" x2="53.0" y2="100.0" stroke="rgb(0,0,0)"  stroke-width="2.0"/>
<line x1="171.2" y1="156.1" x2="159.0" y2="149.1" stroke="rgb(0,0,0)"  stroke-width="2.0"/>
<line x1="174.2" y1="150.9" x2="162.0" y2="143.9" stroke="rgb(0,0,0)"  stroke-width="2.0"/>
<line x1="183.9" y1="173.0" x2="183.9" y2="187.0" stroke="rgb(0,0,0)"  stroke-width="2.0"/>
<line x1="195.2" y1="153.5" x2="207.3" y2="146.5" stroke="rgb(0,0,0)"  stroke-width="2.0"/>
<line x1="138.0" y1="146.5" x2="125.9" y2="153.5" stroke="rgb(0,0,0)"  stroke-width="2.0"/>
<line x1="149.3" y1="127.0" x2="149.3" y2="113.0" stroke="rgb(0,0,0)"  stroke-width="2.0"/>
<line x1="91.3" y1="146.5" x2="103.4" y2="153.5" stroke="rgb(0,0,0)"  stroke-width="2.0"/>
<line x1="114.6" y1="67.0" x2="114.6" y2="53.0" stroke="rgb(0,0,0)"  stroke-width="2.0"/>
<text x="74.000000" y="108.000000" fill="rgb(0,0,0)"  stroke="rgb(0,0,0)" stroke-width="1" font-size="16" >C</text>
<text x="177.923048" y="168.000000" fill="rgb(0,0,0)"  stroke="rgb(0,0,0)" stroke-width="1" font-size="16" >C</text>
<text x="143.282032" y="148.000000" fill="rgb(0,0,0)"  stroke="rgb(0,0,0)" stroke-width="1" font-size="16" >C</text>
<text x="74.000000" y="148.000000" fill="rgb(0,0,0)"  stroke="rgb(0,0,0)" stroke-width="1" font-size="16" >O</text>
<text x="108.641016" y="88.000000" fill="rgb(0,0,0)"  stroke="rgb(0,0,0)" stroke-width="1" font-size="16" >O</text>
<text x="108.641016" y="168.000000" fill="rgb(0,0,0)"  stroke="rgb(0,0,0)" stroke-width="1" font-size="16" >O</text>
<text x="108.641016" y="48.000000" fill="rgb(0,0,0)"  stroke="rgb(0,0,0)" stroke-width="1" font-size="16" >H</text>
<text x="54.000000" y="73.358984" fill="rgb(0,0,0)"  stroke="rgb(0,0,0)" stroke-width="1" font-size="16" >H</text>
<text x="34.000000" y="108.000000" fill="rgb(0,0,0)"  stroke="rgb(0,0,0)" stroke-width="1" font-size="16" >H</text>
<text x="143.282032" y="108.000000" fill="rgb(0,0,0)"  stroke="rgb(0,0,0)" stroke-width="1" font-size="16" >H</text>
<text x="177.923048" y="208.000000" fill="rgb(0,0,0)"  stroke="rgb(0,0,0)" stroke-width="1" font-size="16" >H</text>
<text x="212.564065" y="148.000000" fill="rgb(0,0,0)"  stroke="rgb(0,0,0)" stroke-width="1" font-size="16" >H</text>
</svg>
</g>
</svg>
