<?xml version="1.0"?>
<svg version="1.1" id="topsvg"
xmlns="http://www.w3.org/2000/svg" xmlns:xlink="http://www.w3.org/1999/xlink"
xmlns:cml="http://www.xml-cml.org/schema" x="0" y="0" width="200px" height="200px" viewBox="0 0 100 100">
<title>KHP-123/mol_files/pp_37 - Open Babel Depiction</title>
<rect x="0" y="0" width="100" height="100" fill="white"/>
<g transform="translate(0,0)">
<svg width="100" height="100" x="0" y="0" viewBox="0 0 229.282 189.282"
font-family="sans-serif" stroke="rgb(0,0,0)" stroke-width="2"  stroke-linecap="round">
<line x1="67.0" y1="114.6" x2="53.0" y2="114.6" stroke="rgb(0,0,0)"  stroke-width="2.0"/>
<line x1="73.5" y1="125.9" x2="66.5" y2="138.0" stroke="rgb(0,0,0)"  stroke-width="2.0"/>
<line x1="162.3" y1="74.6" x2="176.3" y2="74.6" stroke="rgb(0,0,0)"  stroke-width="2.0"/>
<line x1="155.8" y1="63.4" x2="162.8" y2="51.3" stroke="rgb(0,0,0)"  stroke-width="2.0"/>
<line x1="155.8" y1="125.9" x2="162.8" y2="138.0" stroke="rgb(0,0,0)"  stroke-width="2.0"/>
<line x1="162.3" y1="114.6" x2="176.3" y2="114.6" stroke="rgb(0,0,0)"  stroke-width="2.0"/>
<line x1="138.0" y1="68.1" x2="125.9" y2="61.1" stroke="rgb(0,0,0)"  stroke-width="2.0"/>
<line x1="103.4" y1="61.1" x2="91.3" y2="68.1" stroke="rgb(0,0,0)"  stroke-width="2.0"/>
<line x1="80.0" y1="87.6" x2="80.0" y2="101.6" stroke="rgb(0,0,0)"  stroke-width="2.0"/>
<line x1="91.3" y1="121.1" x2="103.4" y2="128.1" stroke="rgb(0,0,0)"  stroke-width="2.0"/>
<line x1="125.9" y1="128.1" x2="138.0" y2="121.1" stroke="rgb(0,0,0)"  stroke-width="2.0"/>
<line x1="149.3" y1="101.6" x2="149.3" y2="87.6" stroke="rgb(0,0,0)"  stroke-width="2.0"/>
<text x="74.000000" y="122.641016" fill="rgb(0,0,0)"  stroke="rgb(0,0,0)" stroke-width="1" font-size="16" >C</text>
<text x="143.282032" y="82.641016" fill="rgb(0,0,0)"  stroke="rgb(0,0,0)" stroke-width="1" font-size="16" >C</text>
<text x="143.282032" y="122.641016" fill="rgb(0,0,0)"  stroke="rgb(0,0,0)" stroke-width="1" font-size="16" >C</text>
<text x="74.000000" y="82.641016" fill="rgb(0,0,0)"  stroke="rgb(0,0,0)" stroke-width="1" font-size="16" >O</text>
<text x="108.641016" y="62.641016" fill="rgb(0,0,0)"  stroke="rgb(0,0,0)" stroke-width="1" font-size="16" >O</text>
<text x="108.641016" y="142.641016" fill="rgb(0,0,0)"  stroke="rgb(0,0,0)" stroke-width="1" font-size="16" >O</text>
<text x="163.282032" y="157.282032" fill="rgb(0,0,0)"  stroke="rgb(0,0,0)" stroke-width="1" font-size="16" >H</text>
<text x="34.000000" y="122.641016" fill="rgb(0,0,0)"  stroke="rgb(0,0,0)" stroke-width="1" font-size="16" >H</text>
<text x="54.000000" y="157.282032" fill="rgb(0,0,0)"  stroke="rgb(0,0,0)" stroke-width="1" font-size="16" >H</text>
<text x="183.282032" y="122.641016" fill="rgb(0,0,0)"  stroke="rgb(0,0,0)" stroke-width="1" font-size="16" >H</text>
<text x="183.282032" y="82.641016" fill="rgb(0,0,0)"  stroke="rgb(0,0,0)" stroke-width="1" font-size="16" >H</text>
<text x="163.282032" y="48.000000" fill="rgb(0,0,0)"  stroke="rgb(0,0,0)" stroke-width="1" font-size="16" >H</text>
</svg>
</g>
</svg>
