<?xml version="1.0"?>
<svg version="1.1" id="topsvg"
xmlns="http://www.w3.org/2000/svg" xmlns:xlink="http://www.w3.org/1999/xlink"
xmlns:cml="http://www.xml-cml.org/schema" x="0" y="0" width="200px" height="200px" viewBox="0 0 100 100">
<title>KHP-123/mol_files/pp_3 - Open Babel Depiction</title>
<rect x="0" y="0" width="100" height="100" fill="white"/>
<g transform="translate(0,0)">
<svg width="100" height="100" x="0" y="0" viewBox="0 0 343.923 160"
font-family="sans-serif" stroke="rgb(0,0,0)" stroke-width="2"  stroke-linecap="round">
<line x1="257.4" y1="91.3" x2="250.4" y2="103.4" stroke="rgb(0,0,0)"  stroke-width="2.0"/>
<line x1="263.9" y1="67.0" x2="263.9" y2="53.0" stroke="rgb(0,0,0)"  stroke-width="2.0"/>
<line x1="252.7" y1="73.5" x2="240.5" y2="66.5" stroke="rgb(0,0,0)"  stroke-width="2.0"/>
<line x1="276.9" y1="80.0" x2="290.9" y2="80.0" stroke="rgb(0,0,0)"  stroke-width="2.0"/>
<line x1="84.4" y1="70.9" x2="96.5" y2="63.9" stroke="rgb(0,0,0)"  stroke-width="2.0"/>
<line x1="87.4" y1="76.1" x2="99.5" y2="69.1" stroke="rgb(0,0,0)"  stroke-width="2.0"/>
<line x1="63.4" y1="73.5" x2="51.3" y2="66.5" stroke="rgb(0,0,0)"  stroke-width="2.0"/>
<line x1="74.6" y1="93.0" x2="74.6" y2="107.0" stroke="rgb(0,0,0)"  stroke-width="2.0"/>
<line x1="119.0" y1="50.9" x2="131.2" y2="43.9" stroke="rgb(0,0,0)"  stroke-width="2.0"/>
<line x1="122.0" y1="56.1" x2="134.2" y2="49.1" stroke="rgb(0,0,0)"  stroke-width="2.0"/>
<line x1="230.9" y1="114.6" x2="216.9" y2="114.6" stroke="rgb(0,0,0)"  stroke-width="2.0"/>
<line x1="197.4" y1="103.4" x2="190.4" y2="91.3" stroke="rgb(0,0,0)"  stroke-width="2.0"/>
<text x="257.923048" y="88.000000" fill="rgb(0,0,0)"  stroke="rgb(0,0,0)" stroke-width="1" font-size="16" >C</text>
<text x="68.641016" y="88.000000" fill="rgb(0,0,0)"  stroke="rgb(0,0,0)" stroke-width="1" font-size="16" >C</text>
<text x="103.282032" y="68.000000" fill="rgb(0,0,0)"  stroke="rgb(0,0,0)" stroke-width="1" font-size="16" >C</text>
<text x="237.923048" y="122.641016" fill="rgb(0,0,0)"  stroke="rgb(0,0,0)" stroke-width="1" font-size="16" >O</text>
<text x="197.923048" y="122.641016" fill="rgb(0,0,0)"  stroke="rgb(0,0,0)" stroke-width="1" font-size="16" >O</text>
<text x="137.923048" y="48.000000" fill="rgb(0,0,0)"  stroke="rgb(0,0,0)" stroke-width="1" font-size="16" >O</text>
<text x="177.923048" y="88.000000" fill="rgb(0,0,0)"  stroke="rgb(0,0,0)" stroke-width="1" font-size="16" >H</text>
<text x="257.923048" y="48.000000" fill="rgb(0,0,0)"  stroke="rgb(0,0,0)" stroke-width="1" font-size="16" >H</text>
<text x="223.282032" y="68.000000" fill="rgb(0,0,0)"  stroke="rgb(0,0,0)" stroke-width="1" font-size="16" >H</text>
<text x="297.923048" y="88.000000" fill="rgb(0,0,0)"  stroke="rgb(0,0,0)" stroke-width="1" font-size="16" >H</text>
<text x="34.000000" y="68.000000" fill="rgb(0,0,0)"  stroke="rgb(0,0,0)" stroke-width="1" font-size="16" >H</text>
<text x="68.641016" y="128.000000" fill="rgb(0,0,0)"  stroke="rgb(0,0,0)" stroke-width="1" font-size="16" >H</text>
</svg>
</g>
</svg>
