<?xml version="1.0"?>
<svg version="1.1" id="topsvg"
xmlns="http://www.w3.org/2000/svg" xmlns:xlink="http://www.w3.org/1999/xlink"
xmlns:cml="http://www.xml-cml.org/schema" x="0" y="0" width="200px" height="200px" viewBox="0 0 100 100">
<title>KHP-123/mol_files/pp_42 - Open Babel Depiction</title>
<rect x="0" y="0" width="100" height="100" fill="white"/>
<g transform="translate(0,0)">
<svg width="100" height="100" x="0" y="0" viewBox="0 0 258.564 260"
font-family="sans-serif" stroke="rgb(0,0,0)" stroke-width="2"  stroke-linecap="round">
<line x1="178.6" y1="87.0" x2="178.6" y2="73.0" stroke="rgb(0,0,0)"  stroke-width="2.0"/>
<line x1="167.3" y1="106.5" x2="155.2" y2="113.5" stroke="rgb(0,0,0)"  stroke-width="2.0"/>
<line x1="185.1" y1="111.3" x2="192.1" y2="123.4" stroke="rgb(0,0,0)"  stroke-width="2.0"/>
<line x1="191.6" y1="100.0" x2="205.6" y2="100.0" stroke="rgb(0,0,0)"  stroke-width="2.0"/>
<line x1="119.0" y1="170.9" x2="131.2" y2="163.9" stroke="rgb(0,0,0)"  stroke-width="2.0"/>
<line x1="122.0" y1="176.1" x2="134.2" y2="169.1" stroke="rgb(0,0,0)"  stroke-width="2.0"/>
<line x1="98.0" y1="173.5" x2="85.9" y2="166.5" stroke="rgb(0,0,0)"  stroke-width="2.0"/>
<line x1="109.3" y1="193.0" x2="109.3" y2="207.0" stroke="rgb(0,0,0)"  stroke-width="2.0"/>
<line x1="143.9" y1="147.0" x2="143.9" y2="133.0" stroke="rgb(0,0,0)"  stroke-width="2.0"/>
<line x1="155.2" y1="166.5" x2="167.3" y2="173.5" stroke="rgb(0,0,0)"  stroke-width="2.0"/>
<line x1="167.3" y1="53.5" x2="155.2" y2="46.5" stroke="rgb(0,0,0)"  stroke-width="2.0"/>
<line x1="63.4" y1="166.5" x2="51.3" y2="173.5" stroke="rgb(0,0,0)"  stroke-width="2.0"/>
<text x="172.564065" y="108.000000" fill="rgb(0,0,0)"  stroke="rgb(0,0,0)" stroke-width="1" font-size="16" >C</text>
<text x="103.282032" y="188.000000" fill="rgb(0,0,0)"  stroke="rgb(0,0,0)" stroke-width="1" font-size="16" >C</text>
<text x="137.923048" y="168.000000" fill="rgb(0,0,0)"  stroke="rgb(0,0,0)" stroke-width="1" font-size="16" >C</text>
<text x="172.564065" y="68.000000" fill="rgb(0,0,0)"  stroke="rgb(0,0,0)" stroke-width="1" font-size="16" >O</text>
<text x="68.641016" y="168.000000" fill="rgb(0,0,0)"  stroke="rgb(0,0,0)" stroke-width="1" font-size="16" >O</text>
<text x="137.923048" y="128.000000" fill="rgb(0,0,0)"  stroke="rgb(0,0,0)" stroke-width="1" font-size="16" >O</text>
<text x="34.000000" y="188.000000" fill="rgb(0,0,0)"  stroke="rgb(0,0,0)" stroke-width="1" font-size="16" >H</text>
<text x="192.564065" y="142.641016" fill="rgb(0,0,0)"  stroke="rgb(0,0,0)" stroke-width="1" font-size="16" >H</text>
<text x="212.564065" y="108.000000" fill="rgb(0,0,0)"  stroke="rgb(0,0,0)" stroke-width="1" font-size="16" >H</text>
<text x="172.564065" y="188.000000" fill="rgb(0,0,0)"  stroke="rgb(0,0,0)" stroke-width="1" font-size="16" >H</text>
<text x="137.923048" y="48.000000" fill="rgb(0,0,0)"  stroke="rgb(0,0,0)" stroke-width="1" font-size="16" >H</text>
<text x="103.282032" y="228.000000" fill="rgb(0,0,0)"  stroke="rgb(0,0,0)" stroke-width="1" font-size="16" >H</text>
</svg>
</g>
</svg>
