<?xml version="1.0"?>
<svg version="1.1" id="topsvg"
xmlns="http://www.w3.org/2000/svg" xmlns:xlink="http://www.w3.org/1999/xlink"
xmlns:cml="http://www.xml-cml.org/schema" x="0" y="0" width="200px" height="200px" viewBox="0 0 100 100">
<title>KHP-123/mol_files/pp_48 - Open Babel Depiction</title>
<rect x="0" y="0" width="100" height="100" fill="white"/>
<g transform="translate(0,0)">
<svg width="100" height="100" x="0" y="0" viewBox="0 0 240 189.282"
font-family="sans-serif" stroke="rgb(0,0,0)" stroke-width="2"  stroke-linecap="round">
<line x1="86.5" y1="63.4" x2="93.5" y2="51.3" stroke="rgb(0,0,0)"  stroke-width="2.0"/>
<line x1="80.0" y1="87.6" x2="80.0" y2="101.6" stroke="rgb(0,0,0)"  stroke-width="2.0"/>
<line x1="91.3" y1="81.1" x2="103.4" y2="88.1" stroke="rgb(0,0,0)"  stroke-width="2.0"/>
<line x1="67.0" y1="74.6" x2="53.0" y2="74.6" stroke="rgb(0,0,0)"  stroke-width="2.0"/>
<line x1="146.5" y1="98.0" x2="153.5" y2="85.9" stroke="rgb(0,0,0)"  stroke-width="2.0"/>
<line x1="140.0" y1="122.3" x2="140.0" y2="136.3" stroke="rgb(0,0,0)"  stroke-width="2.0"/>
<line x1="151.3" y1="115.8" x2="163.4" y2="122.8" stroke="rgb(0,0,0)"  stroke-width="2.0"/>
<line x1="127.0" y1="109.3" x2="113.0" y2="109.3" stroke="rgb(0,0,0)"  stroke-width="2.0"/>
<line x1="153.5" y1="63.4" x2="146.5" y2="51.3" stroke="rgb(0,0,0)"  stroke-width="2.0"/>
<line x1="173.0" y1="71.6" x2="187.0" y2="71.6" stroke="rgb(0,0,0)"  stroke-width="2.0"/>
<line x1="173.0" y1="77.6" x2="187.0" y2="77.6" stroke="rgb(0,0,0)"  stroke-width="2.0"/>
<line x1="113.0" y1="40.0" x2="127.0" y2="40.0" stroke="rgb(0,0,0)"  stroke-width="2.0"/>
<text x="74.000000" y="82.641016" fill="rgb(0,0,0)"  stroke="rgb(0,0,0)" stroke-width="1" font-size="16" >C</text>
<text x="134.000000" y="117.282032" fill="rgb(0,0,0)"  stroke="rgb(0,0,0)" stroke-width="1" font-size="16" >C</text>
<text x="154.000000" y="82.641016" fill="rgb(0,0,0)"  stroke="rgb(0,0,0)" stroke-width="1" font-size="16" >C</text>
<text x="94.000000" y="48.000000" fill="rgb(0,0,0)"  stroke="rgb(0,0,0)" stroke-width="1" font-size="16" >O</text>
<text x="134.000000" y="48.000000" fill="rgb(0,0,0)"  stroke="rgb(0,0,0)" stroke-width="1" font-size="16" >O</text>
<text x="194.000000" y="82.641016" fill="rgb(0,0,0)"  stroke="rgb(0,0,0)" stroke-width="1" font-size="16" >O</text>
<text x="74.000000" y="122.641016" fill="rgb(0,0,0)"  stroke="rgb(0,0,0)" stroke-width="1" font-size="16" >H</text>
<text x="108.641016" y="102.641016" fill="rgb(0,0,0)"  stroke="rgb(0,0,0)" stroke-width="1" font-size="16" >H</text>
<text x="34.000000" y="82.641016" fill="rgb(0,0,0)"  stroke="rgb(0,0,0)" stroke-width="1" font-size="16" >H</text>
<text x="134.000000" y="157.282032" fill="rgb(0,0,0)"  stroke="rgb(0,0,0)" stroke-width="1" font-size="16" >H</text>
<text x="168.641016" y="137.282032" fill="rgb(0,0,0)"  stroke="rgb(0,0,0)" stroke-width="1" font-size="16" >H</text>
<text x="94.000000" y="117.282032" fill="rgb(0,0,0)"  stroke="rgb(0,0,0)" stroke-width="1" font-size="16" >H</text>
</svg>
</g>
</svg>
