<?xml version="1.0"?>
<svg version="1.1" id="topsvg"
xmlns="http://www.w3.org/2000/svg" xmlns:xlink="http://www.w3.org/1999/xlink"
xmlns:cml="http://www.xml-cml.org/schema" x="0" y="0" width="200px" height="200px" viewBox="0 0 100 100">
<title>KHP-123/mol_files/pp_47 - Open Babel Depiction</title>
<rect x="0" y="0" width="100" height="100" fill="white"/>
<g transform="translate(0,0)">
<svg width="100" height="100" x="0" y="0" viewBox="0 0 263.923 200"
font-family="sans-serif" stroke="rgb(0,0,0)" stroke-width="2"  stroke-linecap="round">
<line x1="91.3" y1="106.5" x2="103.4" y2="113.5" stroke="rgb(0,0,0)"  stroke-width="2.0"/>
<line x1="80.0" y1="87.0" x2="80.0" y2="73.0" stroke="rgb(0,0,0)"  stroke-width="2.0"/>
<line x1="67.0" y1="100.0" x2="53.0" y2="100.0" stroke="rgb(0,0,0)"  stroke-width="2.0"/>
<line x1="73.5" y1="111.3" x2="66.5" y2="123.4" stroke="rgb(0,0,0)"  stroke-width="2.0"/>
<line x1="172.7" y1="113.5" x2="160.5" y2="106.5" stroke="rgb(0,0,0)"  stroke-width="2.0"/>
<line x1="196.9" y1="120.0" x2="210.9" y2="120.0" stroke="rgb(0,0,0)"  stroke-width="2.0"/>
<line x1="190.4" y1="108.7" x2="197.4" y2="96.6" stroke="rgb(0,0,0)"  stroke-width="2.0"/>
<line x1="183.9" y1="133.0" x2="183.9" y2="147.0" stroke="rgb(0,0,0)"  stroke-width="2.0"/>
<line x1="138.0" y1="106.5" x2="125.9" y2="113.5" stroke="rgb(0,0,0)"  stroke-width="2.0"/>
<line x1="146.3" y1="87.0" x2="146.3" y2="73.0" stroke="rgb(0,0,0)"  stroke-width="2.0"/>
<line x1="152.3" y1="87.0" x2="152.3" y2="73.0" stroke="rgb(0,0,0)"  stroke-width="2.0"/>
<line x1="68.7" y1="53.5" x2="56.6" y2="46.5" stroke="rgb(0,0,0)"  stroke-width="2.0"/>
<text x="74.000000" y="108.000000" fill="rgb(0,0,0)"  stroke="rgb(0,0,0)" stroke-width="1" font-size="16" >C</text>
<text x="177.923048" y="128.000000" fill="rgb(0,0,0)"  stroke="rgb(0,0,0)" stroke-width="1" font-size="16" >C</text>
<text x="143.282032" y="108.000000" fill="rgb(0,0,0)"  stroke="rgb(0,0,0)" stroke-width="1" font-size="16" >C</text>
<text x="108.641016" y="128.000000" fill="rgb(0,0,0)"  stroke="rgb(0,0,0)" stroke-width="1" font-size="16" >O</text>
<text x="74.000000" y="68.000000" fill="rgb(0,0,0)"  stroke="rgb(0,0,0)" stroke-width="1" font-size="16" >O</text>
<text x="143.282032" y="68.000000" fill="rgb(0,0,0)"  stroke="rgb(0,0,0)" stroke-width="1" font-size="16" >O</text>
<text x="39.358984" y="48.000000" fill="rgb(0,0,0)"  stroke="rgb(0,0,0)" stroke-width="1" font-size="16" >H</text>
<text x="34.000000" y="108.000000" fill="rgb(0,0,0)"  stroke="rgb(0,0,0)" stroke-width="1" font-size="16" >H</text>
<text x="54.000000" y="142.641016" fill="rgb(0,0,0)"  stroke="rgb(0,0,0)" stroke-width="1" font-size="16" >H</text>
<text x="217.923048" y="128.000000" fill="rgb(0,0,0)"  stroke="rgb(0,0,0)" stroke-width="1" font-size="16" >H</text>
<text x="197.923048" y="93.358984" fill="rgb(0,0,0)"  stroke="rgb(0,0,0)" stroke-width="1" font-size="16" >H</text>
<text x="177.923048" y="168.000000" fill="rgb(0,0,0)"  stroke="rgb(0,0,0)" stroke-width="1" font-size="16" >H</text>
</svg>
</g>
</svg>
