<?xml version="1.0"?>
<svg version="1.1" id="topsvg"
xmlns="http://www.w3.org/2000/svg" xmlns:xlink="http://www.w3.org/1999/xlink"
xmlns:cml="http://www.xml-cml.org/schema" x="0" y="0" width="200px" height="200px" viewBox="0 0 100 100">
<title>KHP-123/mol_files/pp_41 - Open Babel Depiction</title>
<rect x="0" y="0" width="100" height="100" fill="white"/>
<g transform="translate(0,0)">
<svg width="100" height="100" x="0" y="0" viewBox="0 0 316.227 221.335"
font-family="sans-serif" stroke="rgb(0,0,0)" stroke-width="2"  stroke-linecap="round">
<line x1="131.8" y1="154.5" x2="133.2" y2="168.4" stroke="rgb(0,0,0)"  stroke-width="2.0"/>
<line x1="142.3" y1="146.8" x2="155.1" y2="152.5" stroke="rgb(0,0,0)"  stroke-width="2.0"/>
<line x1="65.7" y1="99.5" x2="52.4" y2="95.2" stroke="rgb(0,0,0)"  stroke-width="2.0"/>
<line x1="110.4" y1="67.0" x2="110.4" y2="53.0" stroke="rgb(0,0,0)"  stroke-width="2.0"/>
<line x1="252.8" y1="53.5" x2="265.0" y2="46.5" stroke="rgb(0,0,0)"  stroke-width="2.0"/>
<line x1="230.3" y1="53.5" x2="218.2" y2="46.5" stroke="rgb(0,0,0)"  stroke-width="2.0"/>
<line x1="82.1" y1="115.9" x2="86.4" y2="129.2" stroke="rgb(0,0,0)"  stroke-width="2.0"/>
<line x1="103.4" y1="141.6" x2="117.4" y2="141.6" stroke="rgb(0,0,0)"  stroke-width="2.0"/>
<line x1="134.4" y1="129.2" x2="138.7" y2="115.9" stroke="rgb(0,0,0)"  stroke-width="2.0"/>
<line x1="132.2" y1="95.9" x2="120.9" y2="87.6" stroke="rgb(0,0,0)"  stroke-width="2.0"/>
<line x1="99.7" y1="87.8" x2="88.7" y2="95.8" stroke="rgb(0,0,0)"  stroke-width="2.0"/>
<line x1="102.3" y1="94.8" x2="94.6" y2="100.4" stroke="rgb(0,0,0)"  stroke-width="2.0"/>
<text x="124.402940" y="149.553671" fill="rgb(0,0,0)"  stroke="rgb(0,0,0)" stroke-width="1" font-size="16" >C</text>
<text x="72.042261" y="111.511410" fill="rgb(0,0,0)"  stroke="rgb(0,0,0)" stroke-width="1" font-size="16" >C</text>
<text x="104.402940" y="88.000000" fill="rgb(0,0,0)"  stroke="rgb(0,0,0)" stroke-width="1" font-size="16" >C</text>
<text x="84.402940" y="149.553671" fill="rgb(0,0,0)"  stroke="rgb(0,0,0)" stroke-width="1" font-size="16" >O</text>
<text x="235.585775" y="68.000000" fill="rgb(0,0,0)"  stroke="rgb(0,0,0)" stroke-width="1" font-size="16" >O</text>
<text x="136.763620" y="111.511410" fill="rgb(0,0,0)"  stroke="rgb(0,0,0)" stroke-width="1" font-size="16" >O</text>
<text x="270.226791" y="48.000000" fill="rgb(0,0,0)"  stroke="rgb(0,0,0)" stroke-width="1" font-size="16" >H</text>
<text x="128.584079" y="189.334547" fill="rgb(0,0,0)"  stroke="rgb(0,0,0)" stroke-width="1" font-size="16" >H</text>
<text x="160.944759" y="165.823136" fill="rgb(0,0,0)"  stroke="rgb(0,0,0)" stroke-width="1" font-size="16" >H</text>
<text x="104.402940" y="48.000000" fill="rgb(0,0,0)"  stroke="rgb(0,0,0)" stroke-width="1" font-size="16" >H</text>
<text x="200.944759" y="48.000000" fill="rgb(0,0,0)"  stroke="rgb(0,0,0)" stroke-width="1" font-size="16" >H</text>
<text x="34.000000" y="99.150730" fill="rgb(0,0,0)"  stroke="rgb(0,0,0)" stroke-width="1" font-size="16" >H</text>
</svg>
</g>
</svg>
