<?xml version="1.0"?>
<svg version="1.1" id="topsvg"
xmlns="http://www.w3.org/2000/svg" xmlns:xlink="http://www.w3.org/1999/xlink"
xmlns:cml="http://www.xml-cml.org/schema" x="0" y="0" width="200px" height="200px" viewBox="0 0 100 100">
<title>KHP-123/mol_files/pp_59 - Open Babel Depiction</title>
<rect x="0" y="0" width="100" height="100" fill="white"/>
<g transform="translate(0,0)">
<svg width="100" height="100" x="0" y="0" viewBox="0 0 340 189.282"
font-family="sans-serif" stroke="rgb(0,0,0)" stroke-width="2"  stroke-linecap="round">
<line x1="86.5" y1="98.0" x2="93.5" y2="85.9" stroke="rgb(0,0,0)"  stroke-width="2.0"/>
<line x1="80.0" y1="122.3" x2="80.0" y2="136.3" stroke="rgb(0,0,0)"  stroke-width="2.0"/>
<line x1="91.3" y1="115.8" x2="103.4" y2="122.8" stroke="rgb(0,0,0)"  stroke-width="2.0"/>
<line x1="67.0" y1="109.3" x2="53.0" y2="109.3" stroke="rgb(0,0,0)"  stroke-width="2.0"/>
<line x1="113.0" y1="71.6" x2="127.0" y2="71.6" stroke="rgb(0,0,0)"  stroke-width="2.0"/>
<line x1="113.0" y1="77.6" x2="127.0" y2="77.6" stroke="rgb(0,0,0)"  stroke-width="2.0"/>
<line x1="93.5" y1="63.4" x2="86.5" y2="51.3" stroke="rgb(0,0,0)"  stroke-width="2.0"/>
<line x1="153.0" y1="71.6" x2="167.0" y2="71.6" stroke="rgb(0,0,0)"  stroke-width="2.0"/>
<line x1="153.0" y1="77.6" x2="167.0" y2="77.6" stroke="rgb(0,0,0)"  stroke-width="2.0"/>
<line x1="267.0" y1="74.6" x2="253.0" y2="74.6" stroke="rgb(0,0,0)"  stroke-width="2.0"/>
<line x1="286.5" y1="63.4" x2="293.5" y2="51.3" stroke="rgb(0,0,0)"  stroke-width="2.0"/>
<line x1="233.5" y1="63.4" x2="226.5" y2="51.3" stroke="rgb(0,0,0)"  stroke-width="2.0"/>
<text x="74.000000" y="117.282032" fill="rgb(0,0,0)"  stroke="rgb(0,0,0)" stroke-width="1" font-size="16" >C</text>
<text x="94.000000" y="82.641016" fill="rgb(0,0,0)"  stroke="rgb(0,0,0)" stroke-width="1" font-size="16" >C</text>
<text x="134.000000" y="82.641016" fill="rgb(0,0,0)"  stroke="rgb(0,0,0)" stroke-width="1" font-size="16" >C</text>
<text x="274.000000" y="82.641016" fill="rgb(0,0,0)"  stroke="rgb(0,0,0)" stroke-width="1" font-size="16" >O</text>
<text x="234.000000" y="82.641016" fill="rgb(0,0,0)"  stroke="rgb(0,0,0)" stroke-width="1" font-size="16" >O</text>
<text x="174.000000" y="82.641016" fill="rgb(0,0,0)"  stroke="rgb(0,0,0)" stroke-width="1" font-size="16" >O</text>
<text x="214.000000" y="48.000000" fill="rgb(0,0,0)"  stroke="rgb(0,0,0)" stroke-width="1" font-size="16" >H</text>
<text x="74.000000" y="157.282032" fill="rgb(0,0,0)"  stroke="rgb(0,0,0)" stroke-width="1" font-size="16" >H</text>
<text x="108.641016" y="137.282032" fill="rgb(0,0,0)"  stroke="rgb(0,0,0)" stroke-width="1" font-size="16" >H</text>
<text x="34.000000" y="117.282032" fill="rgb(0,0,0)"  stroke="rgb(0,0,0)" stroke-width="1" font-size="16" >H</text>
<text x="294.000000" y="48.000000" fill="rgb(0,0,0)"  stroke="rgb(0,0,0)" stroke-width="1" font-size="16" >H</text>
<text x="74.000000" y="48.000000" fill="rgb(0,0,0)"  stroke="rgb(0,0,0)" stroke-width="1" font-size="16" >H</text>
</svg>
</g>
</svg>
