<?xml version="1.0"?>
<svg version="1.1" id="topsvg"
xmlns="http://www.w3.org/2000/svg" xmlns:xlink="http://www.w3.org/1999/xlink"
xmlns:cml="http://www.xml-cml.org/schema" x="0" y="0" width="200px" height="200px" viewBox="0 0 100 100">
<title>KHP-123/mol_files/pp_58 - Open Babel Depiction</title>
<rect x="0" y="0" width="100" height="100" fill="white"/>
<g transform="translate(0,0)">
<svg width="100" height="100" x="0" y="0" viewBox="0 0 225.444 194.365"
font-family="sans-serif" stroke="rgb(0,0,0)" stroke-width="2"  stroke-linecap="round">
<line x1="150.3" y1="114.5" x2="151.7" y2="128.4" stroke="rgb(0,0,0)"  stroke-width="2.0"/>
<line x1="160.8" y1="106.8" x2="173.6" y2="112.5" stroke="rgb(0,0,0)"  stroke-width="2.0"/>
<line x1="84.2" y1="112.5" x2="97.0" y2="106.8" stroke="rgb(0,0,0)"  stroke-width="2.0"/>
<line x1="64.7" y1="128.3" x2="56.5" y2="139.7" stroke="rgb(0,0,0)"  stroke-width="2.0"/>
<line x1="77.6" y1="129.7" x2="83.3" y2="142.5" stroke="rgb(0,0,0)"  stroke-width="2.0"/>
<line x1="61.8" y1="110.2" x2="50.5" y2="102.0" stroke="rgb(0,0,0)"  stroke-width="2.0"/>
<polygon points="107.522722 114.681360 110.079223 128.624971 102.123048 127.788744 " stroke-width="2.000000" fill="rgb(0,0,0)"  stroke="rgb(0,0,0)" />
<line x1="121.9" y1="101.6" x2="135.9" y2="101.6" stroke="rgb(0,0,0)"  stroke-width="2.0"/>
<line x1="152.9" y1="89.2" x2="157.2" y2="75.9" stroke="rgb(0,0,0)"  stroke-width="2.0"/>
<line x1="150.7" y1="55.9" x2="139.4" y2="47.6" stroke="rgb(0,0,0)"  stroke-width="2.0"/>
<line x1="118.4" y1="47.6" x2="107.1" y2="55.9" stroke="rgb(0,0,0)"  stroke-width="2.0"/>
<line x1="100.6" y1="75.9" x2="104.9" y2="89.2" stroke="rgb(0,0,0)"  stroke-width="2.0"/>
<text x="142.902498" y="109.553671" fill="rgb(0,0,0)"  stroke="rgb(0,0,0)" stroke-width="1" font-size="16" >C</text>
<text x="66.360680" y="125.823136" fill="rgb(0,0,0)"  stroke="rgb(0,0,0)" stroke-width="1" font-size="16" >C</text>
<text x="102.902498" y="109.553671" fill="rgb(0,0,0)"  stroke="rgb(0,0,0)" stroke-width="1" font-size="16" >C</text>
<text x="155.263178" y="71.511410" fill="rgb(0,0,0)"  stroke="rgb(0,0,0)" stroke-width="1" font-size="16" >O</text>
<text x="122.902498" y="48.000000" fill="rgb(0,0,0)"  stroke="rgb(0,0,0)" stroke-width="1" font-size="16" >O</text>
<text x="90.541818" y="71.511410" fill="rgb(0,0,0)"  stroke="rgb(0,0,0)" stroke-width="1" font-size="16" >O</text>
<text x="98.721360" y="149.334547" fill="rgb(0,0,0)"  stroke="rgb(0,0,0)" stroke-width="1" font-size="16" >H</text>
<text x="147.083637" y="149.334547" fill="rgb(0,0,0)"  stroke="rgb(0,0,0)" stroke-width="1" font-size="16" >H</text>
<text x="179.444316" y="125.823136" fill="rgb(0,0,0)"  stroke="rgb(0,0,0)" stroke-width="1" font-size="16" >H</text>
<text x="42.849270" y="158.183816" fill="rgb(0,0,0)"  stroke="rgb(0,0,0)" stroke-width="1" font-size="16" >H</text>
<text x="82.630145" y="162.364955" fill="rgb(0,0,0)"  stroke="rgb(0,0,0)" stroke-width="1" font-size="16" >H</text>
<text x="34.000000" y="102.311726" fill="rgb(0,0,0)"  stroke="rgb(0,0,0)" stroke-width="1" font-size="16" >H</text>
</svg>
</g>
</svg>
