<?xml version="1.0"?>
<svg version="1.1" id="topsvg"
xmlns="http://www.w3.org/2000/svg" xmlns:xlink="http://www.w3.org/1999/xlink"
xmlns:cml="http://www.xml-cml.org/schema" x="0" y="0" width="200px" height="200px" viewBox="0 0 100 100">
<title>KHP-123/mol_files/pp_51 - Open Babel Depiction</title>
<rect x="0" y="0" width="100" height="100" fill="white"/>
<g transform="translate(0,0)">
<svg width="100" height="100" x="0" y="0" viewBox="0 0 367.846 160"
font-family="sans-serif" stroke="rgb(0,0,0)" stroke-width="2"  stroke-linecap="round">
<line x1="153.7" y1="70.9" x2="165.8" y2="63.9" stroke="rgb(0,0,0)"  stroke-width="2.0"/>
<line x1="156.7" y1="76.1" x2="168.8" y2="69.1" stroke="rgb(0,0,0)"  stroke-width="2.0"/>
<line x1="132.7" y1="73.5" x2="120.5" y2="66.5" stroke="rgb(0,0,0)"  stroke-width="2.0"/>
<line x1="143.9" y1="93.0" x2="143.9" y2="107.0" stroke="rgb(0,0,0)"  stroke-width="2.0"/>
<line x1="299.7" y1="63.4" x2="306.7" y2="51.3" stroke="rgb(0,0,0)"  stroke-width="2.0"/>
<line x1="293.2" y1="87.6" x2="293.2" y2="101.6" stroke="rgb(0,0,0)"  stroke-width="2.0"/>
<line x1="304.5" y1="81.1" x2="316.6" y2="88.1" stroke="rgb(0,0,0)"  stroke-width="2.0"/>
<line x1="280.2" y1="74.6" x2="266.2" y2="74.6" stroke="rgb(0,0,0)"  stroke-width="2.0"/>
<line x1="188.3" y1="50.9" x2="200.4" y2="43.9" stroke="rgb(0,0,0)"  stroke-width="2.0"/>
<line x1="191.3" y1="56.1" x2="203.4" y2="49.1" stroke="rgb(0,0,0)"  stroke-width="2.0"/>
<line x1="98.0" y1="66.5" x2="85.9" y2="73.5" stroke="rgb(0,0,0)"  stroke-width="2.0"/>
<line x1="63.4" y1="73.5" x2="51.3" y2="66.5" stroke="rgb(0,0,0)"  stroke-width="2.0"/>
<text x="137.923048" y="88.000000" fill="rgb(0,0,0)"  stroke="rgb(0,0,0)" stroke-width="1" font-size="16" >C</text>
<text x="287.205081" y="82.641016" fill="rgb(0,0,0)"  stroke="rgb(0,0,0)" stroke-width="1" font-size="16" >C</text>
<text x="172.564065" y="68.000000" fill="rgb(0,0,0)"  stroke="rgb(0,0,0)" stroke-width="1" font-size="16" >C</text>
<text x="103.282032" y="68.000000" fill="rgb(0,0,0)"  stroke="rgb(0,0,0)" stroke-width="1" font-size="16" >O</text>
<text x="68.641016" y="88.000000" fill="rgb(0,0,0)"  stroke="rgb(0,0,0)" stroke-width="1" font-size="16" >O</text>
<text x="207.205081" y="48.000000" fill="rgb(0,0,0)"  stroke="rgb(0,0,0)" stroke-width="1" font-size="16" >O</text>
<text x="34.000000" y="68.000000" fill="rgb(0,0,0)"  stroke="rgb(0,0,0)" stroke-width="1" font-size="16" >H</text>
<text x="307.205081" y="48.000000" fill="rgb(0,0,0)"  stroke="rgb(0,0,0)" stroke-width="1" font-size="16" >H</text>
<text x="137.923048" y="128.000000" fill="rgb(0,0,0)"  stroke="rgb(0,0,0)" stroke-width="1" font-size="16" >H</text>
<text x="287.205081" y="122.641016" fill="rgb(0,0,0)"  stroke="rgb(0,0,0)" stroke-width="1" font-size="16" >H</text>
<text x="321.846097" y="102.641016" fill="rgb(0,0,0)"  stroke="rgb(0,0,0)" stroke-width="1" font-size="16" >H</text>
<text x="247.205081" y="82.641016" fill="rgb(0,0,0)"  stroke="rgb(0,0,0)" stroke-width="1" font-size="16" >H</text>
</svg>
</g>
</svg>
