<?xml version="1.0"?>
<svg version="1.1" id="topsvg"
xmlns="http://www.w3.org/2000/svg" xmlns:xlink="http://www.w3.org/1999/xlink"
xmlns:cml="http://www.xml-cml.org/schema" x="0" y="0" width="200px" height="200px" viewBox="0 0 100 100">
<title>KHP-123/mol_files/pp_54 - Open Babel Depiction</title>
<rect x="0" y="0" width="100" height="100" fill="white"/>
<g transform="translate(0,0)">
<svg width="100" height="100" x="0" y="0" viewBox="0 0 258.564 189.282"
font-family="sans-serif" stroke="rgb(0,0,0)" stroke-width="2"  stroke-linecap="round">
<line x1="120.5" y1="102.8" x2="132.7" y2="95.8" stroke="rgb(0,0,0)"  stroke-width="2.0"/>
<line x1="102.8" y1="98.0" x2="95.8" y2="85.9" stroke="rgb(0,0,0)"  stroke-width="2.0"/>
<line x1="98.0" y1="115.8" x2="85.9" y2="122.8" stroke="rgb(0,0,0)"  stroke-width="2.0"/>
<line x1="115.8" y1="120.5" x2="122.8" y2="132.7" stroke="rgb(0,0,0)"  stroke-width="2.0"/>
<line x1="167.3" y1="102.8" x2="155.2" y2="95.8" stroke="rgb(0,0,0)"  stroke-width="2.0"/>
<line x1="191.6" y1="109.3" x2="205.6" y2="109.3" stroke="rgb(0,0,0)"  stroke-width="2.0"/>
<line x1="185.1" y1="98.0" x2="192.1" y2="85.9" stroke="rgb(0,0,0)"  stroke-width="2.0"/>
<line x1="178.6" y1="122.3" x2="178.6" y2="136.3" stroke="rgb(0,0,0)"  stroke-width="2.0"/>
<line x1="140.9" y1="76.3" x2="140.9" y2="62.3" stroke="rgb(0,0,0)"  stroke-width="2.0"/>
<line x1="146.9" y1="76.3" x2="146.9" y2="62.3" stroke="rgb(0,0,0)"  stroke-width="2.0"/>
<line x1="95.8" y1="63.4" x2="102.8" y2="51.3" stroke="rgb(0,0,0)"  stroke-width="2.0"/>
<line x1="63.4" y1="122.8" x2="51.3" y2="115.8" stroke="rgb(0,0,0)"  stroke-width="2.0"/>
<text x="103.282032" y="117.282032" fill="rgb(0,0,0)"  stroke="rgb(0,0,0)" stroke-width="1" font-size="16" >C</text>
<text x="172.564065" y="117.282032" fill="rgb(0,0,0)"  stroke="rgb(0,0,0)" stroke-width="1" font-size="16" >C</text>
<text x="137.923048" y="97.282032" fill="rgb(0,0,0)"  stroke="rgb(0,0,0)" stroke-width="1" font-size="16" >C</text>
<text x="83.282032" y="82.641016" fill="rgb(0,0,0)"  stroke="rgb(0,0,0)" stroke-width="1" font-size="16" >O</text>
<text x="68.641016" y="137.282032" fill="rgb(0,0,0)"  stroke="rgb(0,0,0)" stroke-width="1" font-size="16" >O</text>
<text x="137.923048" y="57.282032" fill="rgb(0,0,0)"  stroke="rgb(0,0,0)" stroke-width="1" font-size="16" >O</text>
<text x="34.000000" y="117.282032" fill="rgb(0,0,0)"  stroke="rgb(0,0,0)" stroke-width="1" font-size="16" >H</text>
<text x="103.282032" y="48.000000" fill="rgb(0,0,0)"  stroke="rgb(0,0,0)" stroke-width="1" font-size="16" >H</text>
<text x="123.282032" y="151.923048" fill="rgb(0,0,0)"  stroke="rgb(0,0,0)" stroke-width="1" font-size="16" >H</text>
<text x="212.564065" y="117.282032" fill="rgb(0,0,0)"  stroke="rgb(0,0,0)" stroke-width="1" font-size="16" >H</text>
<text x="192.564065" y="82.641016" fill="rgb(0,0,0)"  stroke="rgb(0,0,0)" stroke-width="1" font-size="16" >H</text>
<text x="172.564065" y="157.282032" fill="rgb(0,0,0)"  stroke="rgb(0,0,0)" stroke-width="1" font-size="16" >H</text>
</svg>
</g>
</svg>
