<?xml version="1.0"?>
<svg version="1.1" id="topsvg"
xmlns="http://www.w3.org/2000/svg" xmlns:xlink="http://www.w3.org/1999/xlink"
xmlns:cml="http://www.xml-cml.org/schema" x="0" y="0" width="200px" height="200px" viewBox="0 0 100 100">
<title>KHP-123/mol_files/pp_73 - Open Babel Depiction</title>
<rect x="0" y="0" width="100" height="100" fill="white"/>
<g transform="translate(0,0)">
<svg width="100" height="100" x="0" y="0" viewBox="0 0 289.282 209.282"
font-family="sans-serif" stroke="rgb(0,0,0)" stroke-width="2"  stroke-linecap="round">
<line x1="85.9" y1="113.5" x2="98.0" y2="106.5" stroke="rgb(0,0,0)"  stroke-width="2.0"/>
<line x1="61.9" y1="116.1" x2="49.8" y2="109.1" stroke="rgb(0,0,0)"  stroke-width="2.0"/>
<line x1="64.9" y1="110.9" x2="52.8" y2="103.9" stroke="rgb(0,0,0)"  stroke-width="2.0"/>
<line x1="74.6" y1="133.0" x2="74.6" y2="147.0" stroke="rgb(0,0,0)"  stroke-width="2.0"/>
<line x1="115.8" y1="111.3" x2="122.8" y2="123.4" stroke="rgb(0,0,0)"  stroke-width="2.0"/>
<line x1="120.5" y1="93.5" x2="132.7" y2="86.5" stroke="rgb(0,0,0)"  stroke-width="2.0"/>
<line x1="102.8" y1="88.7" x2="95.8" y2="76.6" stroke="rgb(0,0,0)"  stroke-width="2.0"/>
<line x1="125.4" y1="147.4" x2="118.4" y2="159.5" stroke="rgb(0,0,0)"  stroke-width="2.0"/>
<line x1="120.2" y1="144.4" x2="113.2" y2="156.5" stroke="rgb(0,0,0)"  stroke-width="2.0"/>
<line x1="142.3" y1="134.6" x2="156.3" y2="134.6" stroke="rgb(0,0,0)"  stroke-width="2.0"/>
<line x1="143.9" y1="67.0" x2="143.9" y2="53.0" stroke="rgb(0,0,0)"  stroke-width="2.0"/>
<line x1="236.3" y1="40.0" x2="222.3" y2="40.0" stroke="rgb(0,0,0)"  stroke-width="2.0"/>
<text x="68.641016" y="128.000000" fill="rgb(0,0,0)"  stroke="rgb(0,0,0)" stroke-width="1" font-size="16" >C</text>
<text x="103.282032" y="108.000000" fill="rgb(0,0,0)"  stroke="rgb(0,0,0)" stroke-width="1" font-size="16" >C</text>
<text x="123.282032" y="142.641016" fill="rgb(0,0,0)"  stroke="rgb(0,0,0)" stroke-width="1" font-size="16" >C</text>
<text x="34.000000" y="108.000000" fill="rgb(0,0,0)"  stroke="rgb(0,0,0)" stroke-width="1" font-size="16" >O</text>
<text x="137.923048" y="88.000000" fill="rgb(0,0,0)"  stroke="rgb(0,0,0)" stroke-width="1" font-size="16" >O</text>
<text x="103.282032" y="177.282032" fill="rgb(0,0,0)"  stroke="rgb(0,0,0)" stroke-width="1" font-size="16" >O</text>
<text x="137.923048" y="48.000000" fill="rgb(0,0,0)"  stroke="rgb(0,0,0)" stroke-width="1" font-size="16" >H</text>
<text x="243.282032" y="48.000000" fill="rgb(0,0,0)"  stroke="rgb(0,0,0)" stroke-width="1" font-size="16" >H</text>
<text x="68.641016" y="168.000000" fill="rgb(0,0,0)"  stroke="rgb(0,0,0)" stroke-width="1" font-size="16" >H</text>
<text x="163.282032" y="142.641016" fill="rgb(0,0,0)"  stroke="rgb(0,0,0)" stroke-width="1" font-size="16" >H</text>
<text x="203.282032" y="48.000000" fill="rgb(0,0,0)"  stroke="rgb(0,0,0)" stroke-width="1" font-size="16" >H</text>
<text x="83.282032" y="73.358984" fill="rgb(0,0,0)"  stroke="rgb(0,0,0)" stroke-width="1" font-size="16" >H</text>
</svg>
</g>
</svg>
