<?xml version="1.0"?>
<svg version="1.1" id="topsvg"
xmlns="http://www.w3.org/2000/svg" xmlns:xlink="http://www.w3.org/1999/xlink"
xmlns:cml="http://www.xml-cml.org/schema" x="0" y="0" width="200px" height="200px" viewBox="0 0 100 100">
<title>KHP-123/mol_files/pp_95 - Open Babel Depiction</title>
<rect x="0" y="0" width="100" height="100" fill="white"/>
<g transform="translate(0,0)">
<svg width="100" height="100" x="0" y="0" viewBox="0 0 333.205 200"
font-family="sans-serif" stroke="rgb(0,0,0)" stroke-width="2"  stroke-linecap="round">
<line x1="77.6" y1="113.0" x2="77.6" y2="127.0" stroke="rgb(0,0,0)"  stroke-width="2.0"/>
<line x1="71.6" y1="113.0" x2="71.6" y2="127.0" stroke="rgb(0,0,0)"  stroke-width="2.0"/>
<line x1="85.9" y1="93.5" x2="98.0" y2="86.5" stroke="rgb(0,0,0)"  stroke-width="2.0"/>
<line x1="63.4" y1="93.5" x2="51.3" y2="86.5" stroke="rgb(0,0,0)"  stroke-width="2.0"/>
<line x1="63.4" y1="146.5" x2="51.3" y2="153.5" stroke="rgb(0,0,0)"  stroke-width="2.0"/>
<line x1="85.9" y1="146.5" x2="98.0" y2="153.5" stroke="rgb(0,0,0)"  stroke-width="2.0"/>
<line x1="120.5" y1="86.5" x2="132.7" y2="93.5" stroke="rgb(0,0,0)"  stroke-width="2.0"/>
<line x1="106.3" y1="67.0" x2="106.3" y2="53.0" stroke="rgb(0,0,0)"  stroke-width="2.0"/>
<line x1="112.3" y1="67.0" x2="112.3" y2="53.0" stroke="rgb(0,0,0)"  stroke-width="2.0"/>
<line x1="155.2" y1="93.5" x2="167.3" y2="86.5" stroke="rgb(0,0,0)"  stroke-width="2.0"/>
<line x1="189.8" y1="86.5" x2="201.9" y2="93.5" stroke="rgb(0,0,0)"  stroke-width="2.0"/>
<line x1="280.2" y1="40.0" x2="266.2" y2="40.0" stroke="rgb(0,0,0)"  stroke-width="2.0"/>
<text x="68.641016" y="108.000000" fill="rgb(0,0,0)"  stroke="rgb(0,0,0)" stroke-width="1" font-size="16" >C</text>
<text x="68.641016" y="148.000000" fill="rgb(0,0,0)"  stroke="rgb(0,0,0)" stroke-width="1" font-size="16" >C</text>
<text x="103.282032" y="88.000000" fill="rgb(0,0,0)"  stroke="rgb(0,0,0)" stroke-width="1" font-size="16" >C</text>
<text x="137.923048" y="108.000000" fill="rgb(0,0,0)"  stroke="rgb(0,0,0)" stroke-width="1" font-size="16" >O</text>
<text x="172.564065" y="88.000000" fill="rgb(0,0,0)"  stroke="rgb(0,0,0)" stroke-width="1" font-size="16" >O</text>
<text x="103.282032" y="48.000000" fill="rgb(0,0,0)"  stroke="rgb(0,0,0)" stroke-width="1" font-size="16" >O</text>
<text x="207.205081" y="108.000000" fill="rgb(0,0,0)"  stroke="rgb(0,0,0)" stroke-width="1" font-size="16" >H</text>
<text x="287.205081" y="48.000000" fill="rgb(0,0,0)"  stroke="rgb(0,0,0)" stroke-width="1" font-size="16" >H</text>
<text x="34.000000" y="88.000000" fill="rgb(0,0,0)"  stroke="rgb(0,0,0)" stroke-width="1" font-size="16" >H</text>
<text x="247.205081" y="48.000000" fill="rgb(0,0,0)"  stroke="rgb(0,0,0)" stroke-width="1" font-size="16" >H</text>
<text x="34.000000" y="168.000000" fill="rgb(0,0,0)"  stroke="rgb(0,0,0)" stroke-width="1" font-size="16" >H</text>
<text x="103.282032" y="168.000000" fill="rgb(0,0,0)"  stroke="rgb(0,0,0)" stroke-width="1" font-size="16" >H</text>
</svg>
</g>
</svg>
