<?xml version="1.0"?>
<svg version="1.1" id="topsvg"
xmlns="http://www.w3.org/2000/svg" xmlns:xlink="http://www.w3.org/1999/xlink"
xmlns:cml="http://www.xml-cml.org/schema" x="0" y="0" width="200px" height="200px" viewBox="0 0 100 100">
<title>KHP-123/mol_files/pp_91 - Open Babel Depiction</title>
<rect x="0" y="0" width="100" height="100" fill="white"/>
<g transform="translate(0,0)">
<svg width="100" height="100" x="0" y="0" viewBox="0 0 183.847 225.591"
font-family="sans-serif" stroke="rgb(0,0,0)" stroke-width="2"  stroke-linecap="round">
<line x1="104.2" y1="74.5" x2="117.0" y2="68.8" stroke="rgb(0,0,0)"  stroke-width="2.0"/>
<line x1="93.7" y1="66.9" x2="95.2" y2="52.9" stroke="rgb(0,0,0)"  stroke-width="2.0"/>
<line x1="65.9" y1="152.6" x2="58.9" y2="164.7" stroke="rgb(0,0,0)"  stroke-width="2.0"/>
<line x1="78.9" y1="152.6" x2="85.9" y2="164.7" stroke="rgb(0,0,0)"  stroke-width="2.0"/>
<line x1="113.4" y1="127.5" x2="122.8" y2="137.9" stroke="rgb(0,0,0)"  stroke-width="2.0"/>
<line x1="117.4" y1="115.1" x2="131.1" y2="112.2" stroke="rgb(0,0,0)"  stroke-width="2.0"/>
<line x1="127.5" y1="159.9" x2="123.1" y2="173.2" stroke="rgb(0,0,0)"  stroke-width="2.0"/>
<line x1="82.9" y1="133.7" x2="94.2" y2="125.5" stroke="rgb(0,0,0)"  stroke-width="2.0"/>
<line x1="100.7" y1="105.5" x2="96.4" y2="92.1" stroke="rgb(0,0,0)"  stroke-width="2.0"/>
<line x1="79.4" y1="79.8" x2="65.4" y2="79.8" stroke="rgb(0,0,0)"  stroke-width="2.0"/>
<line x1="48.3" y1="92.1" x2="44.0" y2="105.5" stroke="rgb(0,0,0)"  stroke-width="2.0"/>
<line x1="50.5" y1="125.5" x2="61.8" y2="133.7" stroke="rgb(0,0,0)"  stroke-width="2.0"/>
<text x="86.360680" y="87.780876" fill="rgb(0,0,0)"  stroke="rgb(0,0,0)" stroke-width="1" font-size="16" >C</text>
<text x="66.360680" y="149.334547" fill="rgb(0,0,0)"  stroke="rgb(0,0,0)" stroke-width="1" font-size="16" >C</text>
<text x="98.721360" y="125.823136" fill="rgb(0,0,0)"  stroke="rgb(0,0,0)" stroke-width="1" font-size="16" >C</text>
<text x="46.360680" y="87.780876" fill="rgb(0,0,0)"  stroke="rgb(0,0,0)" stroke-width="1" font-size="16" >O</text>
<text x="34.000000" y="125.823136" fill="rgb(0,0,0)"  stroke="rgb(0,0,0)" stroke-width="1" font-size="16" >O</text>
<text x="125.486584" y="155.548929" fill="rgb(0,0,0)"  stroke="rgb(0,0,0)" stroke-width="1" font-size="16" >O</text>
<text x="113.125904" y="193.591190" fill="rgb(0,0,0)"  stroke="rgb(0,0,0)" stroke-width="1" font-size="16" >H</text>
<text x="122.902498" y="71.511410" fill="rgb(0,0,0)"  stroke="rgb(0,0,0)" stroke-width="1" font-size="16" >H</text>
<text x="90.541818" y="48.000000" fill="rgb(0,0,0)"  stroke="rgb(0,0,0)" stroke-width="1" font-size="16" >H</text>
<text x="137.847264" y="117.506669" fill="rgb(0,0,0)"  stroke="rgb(0,0,0)" stroke-width="1" font-size="16" >H</text>
<text x="46.360680" y="183.975563" fill="rgb(0,0,0)"  stroke="rgb(0,0,0)" stroke-width="1" font-size="16" >H</text>
<text x="86.360680" y="183.975563" fill="rgb(0,0,0)"  stroke="rgb(0,0,0)" stroke-width="1" font-size="16" >H</text>
</svg>
</g>
</svg>
