<?xml version="1.0"?>
<svg version="1.1" id="topsvg"
xmlns="http://www.w3.org/2000/svg" xmlns:xlink="http://www.w3.org/1999/xlink"
xmlns:cml="http://www.xml-cml.org/schema" x="0" y="0" width="200px" height="200px" viewBox="0 0 100 100">
<title>KHP-123/mol_files/pp_9 - Open Babel Depiction</title>
<rect x="0" y="0" width="100" height="100" fill="white"/>
<g transform="translate(0,0)">
<svg width="100" height="100" x="0" y="0" viewBox="0 0 254.641 180"
font-family="sans-serif" stroke="rgb(0,0,0)" stroke-width="2"  stroke-linecap="round">
<line x1="167.0" y1="100.0" x2="153.0" y2="100.0" stroke="rgb(0,0,0)"  stroke-width="2.0"/>
<line x1="191.3" y1="93.5" x2="203.4" y2="86.5" stroke="rgb(0,0,0)"  stroke-width="2.0"/>
<line x1="180.0" y1="87.0" x2="180.0" y2="73.0" stroke="rgb(0,0,0)"  stroke-width="2.0"/>
<line x1="186.5" y1="111.3" x2="193.5" y2="123.4" stroke="rgb(0,0,0)"  stroke-width="2.0"/>
<line x1="140.0" y1="87.0" x2="140.0" y2="73.0" stroke="rgb(0,0,0)"  stroke-width="2.0"/>
<line x1="127.0" y1="100.0" x2="113.0" y2="100.0" stroke="rgb(0,0,0)"  stroke-width="2.0"/>
<line x1="140.8" y1="115.9" x2="139.2" y2="115.9" stroke="rgb(0,0,0)"  stroke-width="1.0"/>
<line x1="141.4" y1="118.1" x2="138.6" y2="118.1" stroke="rgb(0,0,0)"  stroke-width="1.0"/>
<line x1="142.1" y1="120.3" x2="137.9" y2="120.3" stroke="rgb(0,0,0)"  stroke-width="1.0"/>
<line x1="142.7" y1="122.4" x2="137.3" y2="122.4" stroke="rgb(0,0,0)"  stroke-width="1.0"/>
<line x1="143.4" y1="124.6" x2="136.6" y2="124.6" stroke="rgb(0,0,0)"  stroke-width="1.0"/>
<line x1="144.0" y1="126.8" x2="136.0" y2="126.8" stroke="rgb(0,0,0)"  stroke-width="1.0"/>
<line x1="149.8" y1="50.9" x2="161.9" y2="43.9" stroke="rgb(0,0,0)"  stroke-width="2.0"/>
<line x1="152.8" y1="56.1" x2="164.9" y2="49.1" stroke="rgb(0,0,0)"  stroke-width="2.0"/>
<line x1="128.7" y1="53.5" x2="116.6" y2="46.5" stroke="rgb(0,0,0)"  stroke-width="2.0"/>
<line x1="93.5" y1="111.3" x2="86.5" y2="123.4" stroke="rgb(0,0,0)"  stroke-width="2.0"/>
<line x1="67.0" y1="134.6" x2="53.0" y2="134.6" stroke="rgb(0,0,0)"  stroke-width="2.0"/>
<text x="174.000000" y="108.000000" fill="rgb(0,0,0)"  stroke="rgb(0,0,0)" stroke-width="1" font-size="16" >C</text>
<text x="134.000000" y="108.000000" fill="rgb(0,0,0)"  stroke="rgb(0,0,0)" stroke-width="1" font-size="16" >C</text>
<text x="134.000000" y="68.000000" fill="rgb(0,0,0)"  stroke="rgb(0,0,0)" stroke-width="1" font-size="16" >C</text>
<text x="94.000000" y="108.000000" fill="rgb(0,0,0)"  stroke="rgb(0,0,0)" stroke-width="1" font-size="16" >O</text>
<text x="74.000000" y="142.641016" fill="rgb(0,0,0)"  stroke="rgb(0,0,0)" stroke-width="1" font-size="16" >O</text>
<text x="168.641016" y="48.000000" fill="rgb(0,0,0)"  stroke="rgb(0,0,0)" stroke-width="1" font-size="16" >O</text>
<text x="34.000000" y="142.641016" fill="rgb(0,0,0)"  stroke="rgb(0,0,0)" stroke-width="1" font-size="16" >H</text>
<text x="208.641016" y="88.000000" fill="rgb(0,0,0)"  stroke="rgb(0,0,0)" stroke-width="1" font-size="16" >H</text>
<text x="174.000000" y="68.000000" fill="rgb(0,0,0)"  stroke="rgb(0,0,0)" stroke-width="1" font-size="16" >H</text>
<text x="99.358984" y="48.000000" fill="rgb(0,0,0)"  stroke="rgb(0,0,0)" stroke-width="1" font-size="16" >H</text>
<text x="194.000000" y="142.641016" fill="rgb(0,0,0)"  stroke="rgb(0,0,0)" stroke-width="1" font-size="16" >H</text>
<text x="134.000000" y="148.000000" fill="rgb(0,0,0)"  stroke="rgb(0,0,0)" stroke-width="1" font-size="16" >H</text>
</svg>
</g>
</svg>
